<?xml version="1.0" encoding="iso-8859-1"?>
<!DOCTYPE svg PUBLIC "-//W3C//DTD SVG 1.1//EN" "http://www.w3.org/Graphics/SVG/1.1/DTD/svg11.dtd">
<svg version="1.1" id="Capa_1" xmlns="http://www.w3.org/2000/svg" xmlns:xlink="http://www.w3.org/1999/xlink" x="0px" y="0px"
	 width="70.074px" height="70.075px" viewBox="0 0 70.074 70.075" style="enable-background:new 0 0 70.074 70.075;"
	 xml:space="preserve">
<g>
	<path d="M67.679,17.313v-4.172h-4.418v-5.26l-28.335,5.26H2.392v4.172H0v44.879h70.074V17.313H67.679z M4.728,17.313v-1.836h2.939
		v1.836v12.272l3.749-2.628l3.756,2.628V17.313v-1.836h18.695v1.836v40.792H4.725L4.728,17.313L4.728,17.313z M47.729,13.141
		l13.196-2.45v2.45v1.168v1.168v1.836v35.965l-24.72,4.59V17.313v-1.836v-0.196l5.235-0.972L47.729,13.141z M65.344,17.313v40.792
		H47.729l15.53-2.884V17.315v-1.836h2.085V17.313L65.344,17.313z M39.554,47.305l-0.613-2.254l18.477-5.021l0.613,2.253
		L39.554,47.305z M39.342,53.605l-0.614-2.256l18.477-5.021l0.614,2.254L39.342,53.605z M39.807,23.309L39.18,21.06l13.431-3.747
		l4.58-1.28l0.356,1.28l0.269,0.972L39.807,23.309z M39.807,29.269l-0.627-2.25l18.016-5.02l0.627,2.249L39.807,29.269z
		 M39.772,35.229l-0.632-2.25l18.055-5.023l0.627,2.253L39.772,35.229z M39.772,41.192l-0.632-2.25l18.055-5.019l0.627,2.248
		L39.772,41.192z M20.632,41.974c0.222,0.205,0.33,0.465,0.33,0.78c0,0.376-0.122,0.666-0.365,0.88
		c-0.201,0.174-0.459,0.278-0.775,0.311v-2.391C20.193,41.668,20.467,41.81,20.632,41.974z M18.635,37.895
		c0.163-0.141,0.374-0.23,0.633-0.265v2.117c-0.245-0.101-0.439-0.208-0.584-0.319c-0.259-0.201-0.392-0.442-0.392-0.729
		C18.292,38.352,18.406,38.083,18.635,37.895z M26.245,37.521l0.889-3.661l-3.724,0.609l-1.233-3.557l-2.801,2.522l-2.969-2.322
		l-0.985,3.635l-3.756-0.353l1.137,3.596l-3.35,1.729l2.899,2.411l-1.883,3.265l3.742,0.458l0.183,3.769l3.396-1.638l2.191,3.067
		l1.973-3.212l3.503,1.398l-0.079-3.768l3.702-0.719l-2.105-3.125l2.729-2.609L26.245,37.521z M21.789,44.561
		c-0.497,0.438-1.156,0.67-1.967,0.709v1.193h-0.556v-1.188c-0.867-0.048-1.535-0.297-2.006-0.737
		c-0.472-0.438-0.708-1.072-0.708-1.899l0.004-0.215h1.669c-0.024,0.522,0.074,0.91,0.299,1.159
		c0.174,0.191,0.422,0.312,0.742,0.357v-2.566c-0.871-0.275-1.502-0.588-1.892-0.941c-0.428-0.393-0.638-0.906-0.638-1.542
		c0-0.785,0.254-1.407,0.769-1.861c0.446-0.401,1.032-0.625,1.761-0.671v-0.855h0.556v0.842c0.797,0.041,1.416,0.253,1.865,0.652
		c0.495,0.438,0.743,1.061,0.743,1.87h-1.57c0-0.449-0.096-0.775-0.292-0.972c-0.157-0.152-0.405-0.241-0.746-0.273v2.317
		l0.151,0.051c0.958,0.273,1.636,0.615,2.037,1.017c0.397,0.406,0.599,0.947,0.599,1.639C22.609,43.448,22.335,44.086,21.789,44.561
		z"/>
</g>
</svg>
