<svg id="outputsvg" class="img-fluid" width="274.02" height="315.64" version="1.1" viewBox="0 0 2740.2 3156.4" xmlns="http://www.w3.org/2000/svg">
 <g id="l4PoMKlIKeQ33HfHdE5QXdP" transform="translate(-10 -15.629)" fill="#0f0f10">
  <path id="p10EUOTlBV" d="m20 802c0-4 228-139 508-300 279-162 563-327 632-367 69-41 128-74 133-75 4 0 7 11 7 25 0 22-4 25-35 25-28 0-35 4-35 20s-7 20-35 20-35 4-35 20c0 15-7 20-25 20-16 0-25 6-25 15 0 8-7 15-15 15s-15 5-15 10c0 6-16 10-35 10-28 0-35 4-35 20s-7 20-35 20-35 4-35 20-7 20-35 20-35 4-35 20c0 15-7 20-25 20-16 0-25 6-25 15 0 10-11 15-35 15-28 0-35 4-35 20s-7 20-35 20-35 4-35 20-7 20-35 20-35 4-35 20c0 15-7 20-25 20-16 0-25 6-25 15 0 10-11 15-35 15-28 0-35 4-35 20s-7 20-35 20-35 4-35 20-7 20-35 20-35 4-35 20c0 15-7 20-25 20-16 0-25 6-25 15 0 10-11 15-35 15-28 0-35 4-35 20s-7 20-35 20-35 4-35 20-7 20-35 20-35 4-35 20-7 20-35 20c-19 0-35-3-35-8z"/>
  <path d="m2220 792c0-10 228-142 245-142 18 0 245 132 245 142 0 4-16 8-35 8-24 0-35-5-35-15 0-9-9-15-25-15-18 0-25-5-25-20 0-16-7-20-35-20s-35-4-35-20c0-18-7-20-55-20s-55 2-55 20c0 15-7 20-25 20-16 0-25 6-25 15 0 10-11 15-35 15-28 0-35 4-35 20s-7 20-35 20c-19 0-35-3-35-8z"/>
  <path id="pmOs24g0M" d="m1660 482c0-8 52-42 64-42 3 0 6 11 6 25 0 22-4 25-35 25-19 0-35-4-35-8z"/>
  <path id="p16nBTaGCB" d="m2090 460c0-16-7-20-35-20-24 0-35-5-35-15 0-9-9-15-25-15-20 0-25-5-25-25 0-14 2-25 5-25 12 0 185 105 185 112 0 5-16 8-35 8-28 0-35-4-35-20z"/>
  <path d="m1800 402c0-10 108-72 126-72 8 0 14 9 14 20 0 16-7 20-35 20s-35 4-35 20-7 20-35 20c-19 0-35-4-35-8z"/>
  <path id="p144pLfBfP" d="m1520 125c0-30 3-30 41-8 38 23 37 33-6 33-31 0-35-3-35-25z"/>
  <path id="p12sdg6UZE" d="m1400 65c0-9-9-15-25-15-27 0-35-24-10-34 15-5 105 42 105 56 0 5-16 8-35 8-24 0-35-5-35-15z"/>
 </g>
 <g transform="translate(-10 -15.629)" fill="#0c1222">
  <path id="pRzXHLfyn" d="m2720 814c0-22 2-25 15-14 8 7 15 19 15 26 0 8-7 14-15 14-10 0-15-10-15-26z"/>
 </g>
 <g id="l6kMMQGim7IL0wXXNHA52ro" transform="translate(-10 -15.629)" fill="#1e1f23">
  <path id="pNi20CaGP" d="m2170 795c0-24 5-35 15-35 8 0 15 7 15 15 0 20 8 19 55-10 50-31 55-31 55 0 0 22-4 25-35 25-28 0-35 4-35 20s-7 20-35 20c-33 0-35-2-35-35z"/>
  <path d="m2690 805c0-14 3-25 6-25 13 0 42 21 48 35 4 11-2 15-24 15-25 0-30-4-30-25z"/>
  <path id="pS1vQwYZP" d="m40 792c0-7 123-82 135-82 3 0 5 11 5 25 0 22-4 25-35 25-28 0-35 4-35 20s-7 20-35 20c-19 0-35-4-35-8z"/>
  <path id="p124tokVEr" d="m2570 740c0-16-7-20-35-20-31 0-35-3-35-25 0-14 2-25 5-25 12 0 135 75 135 82 0 4-16 8-35 8-28 0-35-4-35-20z"/>
  <path id="p1EF7mJdeZ" d="m2360 712c0-8 52-42 64-42 3 0 6 11 6 25 0 22-4 25-35 25-19 0-35-4-35-8z"/>
  <path id="pCip45YhL" d="m300 642c0-7 123-82 135-82 3 0 5 11 5 25 0 22-4 25-35 25-28 0-35 4-35 20s-7 20-35 20c-19 0-35-4-35-8z"/>
  <path id="p1G1N5i2TV" d="m2140 490c0-16-7-20-35-20-31 0-35-3-35-25 0-32 3-31 69 8 65 39 75 57 32 57-24 0-31-4-31-20z"/>
  <path id="p18BazUdjv" d="m560 492c0-7 123-82 135-82 3 0 5 11 5 25 0 22-4 25-35 25-28 0-35 4-35 20s-7 20-35 20c-19 0-35-4-35-8z"/>
  <path id="p1Gu047r5R" d="m1680 472c0-7 193-122 205-122 3 0 5 11 5 25 0 22-4 25-35 25-28 0-35 4-35 20s-7 20-35 20-35 4-35 20-7 20-35 20c-19 0-35-4-35-8z"/>
  <path id="piPijQnJm" d="m1900 356c0-23 20-30 46-15 34 18 30 29-11 29-24 0-35-5-35-14z"/>
  <path d="m820 342c0-7 123-82 135-82 3 0 5 11 5 25 0 22-4 25-35 25-28 0-35 4-35 20s-7 20-35 20c-19 0-35-4-35-8z"/>
  <path d="m1110 172c0-7 243-152 255-152 3 0 5 11 5 25 0 20-5 25-25 25-16 0-25 6-25 15 0 10-11 15-35 15-28 0-35 4-35 20s-7 20-35 20-35 4-35 20-7 20-35 20c-19 0-35-3-35-8z"/>
  <path id="pT70hZGqV" d="m1450 85c0-30 3-30 41-8 38 23 37 33-6 33-31 0-35-3-35-25z"/>
 </g>
 <g id="l5kwmJ3GFPn5Bw7ZGZZfSjU" transform="translate(-10 -15.629)" fill="#232831">
  <path id="pHbOctsfE" d="m10 816c0-11 1015-606 1034-606 3 0 6 11 6 24 0 24-16 36-51 36-10 0-19 7-19 15 0 10-11 15-35 15-28 0-35 4-35 20s-7 20-35 20-35 4-35 20c0 15-7 20-25 20-15 0-25 6-25 14 0 15-21 26-51 26-10 0-19 7-19 15 0 10-11 15-35 15-28 0-35 4-35 20s-7 20-35 20-35 4-35 20c0 15-7 20-25 20-15 0-25 6-25 14 0 15-21 26-51 26-10 0-19 7-19 15 0 10-11 15-35 15-28 0-35 4-35 20s-7 20-35 20-35 4-35 20c0 15-7 20-25 20-15 0-25 6-25 14 0 15-21 26-51 26-10 0-19 7-19 15 0 10-11 15-35 15-28 0-35 4-35 20s-7 20-35 20-35 4-35 20c0 15-7 20-25 20-14 0-25-6-25-14z"/>
  <path id="pbj88azJq" d="m2191 783c2-29 3-32 6-11l4 27 119-70c65-38 121-69 124-69s6 11 6 25c0 20-5 25-25 25-15 0-25 6-25 14 0 15-21 26-51 26-10 0-19 7-19 15 0 10-11 15-35 15-28 0-35 4-35 20s-7 20-35 20c-34 0-35-1-34-37z"/>
  <path id="p7uMePKso" d="m2670 805c0-9-9-15-25-15-18 0-25-5-25-20 0-16-7-20-35-20s-35-4-35-20-7-20-35-20c-31 0-35-3-35-25 0-14 3-25 6-25 12 0 254 144 254 152 0 4-16 8-35 8-24 0-35-5-35-15z"/>
  <path id="p9v3jEKOF" d="m1630 475c0-37 16-49 22-15 3 18 16 13 125-50 68-38 125-70 128-70s5 11 5 25c0 22-4 25-35 25-28 0-35 4-35 20s-7 20-35 20-35 4-35 20-7 20-35 20-35 4-35 20-7 20-35 20c-33 0-35-2-35-35z"/>
  <path id="p11hRK5wHU" d="m2120 480c0-16-7-20-35-20-24 0-35-5-35-15 0-9-9-15-25-15s-25-6-25-15-9-15-25-15c-20 0-25-5-25-25 0-14 2-25 5-25 12 0 235 135 235 143 0 4-16 7-35 7-28 0-35-4-35-20z"/>
  <path id="plipvMH6t" d="m1060 202c0-7 193-122 205-122 3 0 5 11 5 25 0 22-4 25-35 25-28 0-35 4-35 20s-7 20-35 20-35 4-35 20-7 20-35 20c-19 0-35-4-35-8z"/>
  <path id="p1CIUn5rvo" d="m1570 160c0-16-7-20-35-20s-35-4-35-20-7-20-35-20c-24 0-35-5-35-14 0-10-17-17-55-21-30-4-55-10-55-14s12-14 28-23c27-16 29-16 160 60 72 42 132 80 132 84 0 5-16 8-35 8-28 0-35-4-35-20z"/>
 </g>
 <g id="l4VtHoOR4brG5ROjiu3pszX" transform="translate(-10 -15.629)" fill="#1b273f">
  <path id="pSyMDiTMu" d="m1335 3152c-16-10-57-33-90-51-116-64-145-83-145-97 0-18 44-19 62-1 7 6 30 20 51 29 20 10 37 22 37 27 0 4 14 11 30 15 18 3 30 12 30 21s9 15 23 15c12 0 28 4 35 9 13 8 101-30 130-56 7-7 24-16 38-19 13-3 24-10 24-14 0-5 16-14 35-21s35-16 35-19c0-4 11-12 25-18 29-14 85-16 85-4s-337 202-357 202c-10 0-31-8-48-18z"/>
  <path id="p139xm7UjF" d="m688 2778-138-80v-149c0-82-3-149-6-149s-61 32-128 70c-68 39-128 70-134 70s-69-34-141-76c-127-74-158-104-106-104 16 0 25 6 25 15 0 8 9 15 19 15 30 0 51 11 51 26 0 8 10 14 24 14s31 6 38 13 28 19 46 26c17 7 32 17 32 22s7 9 15 9 15-4 15-10c0-5 16-10 35-10 28 0 35-4 35-19 0-20 18-31 51-31 10 0 19-7 19-15 0-10 11-15 35-15 29 0 35-4 35-21s5-20 38-17l37 3 3 150c3 160 7 172 60 189 12 4 22 14 22 22s10 14 24 14 31 6 38 13 28 19 46 26c17 7 32 17 32 21s9 10 20 13c12 3 20 0 20-8 0-14 22-25 51-25 10 0 19-6 19-14s16-20 35-27 35-16 35-20 16-13 35-20 35-17 35-21 16-8 35-8c33 0 35 2 35 35 0 24-5 35-15 35-8 0-15-7-15-15s-2-15-4-15-63 34-136 75-133 75-134 75c0-1-63-37-138-82z"/>
 </g>
 <g id="l74g794ZjA3M1JEQRGHkrLp" transform="translate(-10 -15.629)" fill="#243554">
  <path d="m1360 3150c0-13 9-22 25-26 14-3 25-9 25-14 0-4 19-15 43-26 23-10 44-21 47-25s50-32 105-63c64-36 111-56 132-56 45 0 41 15-9 41-24 12-109 60-190 105-81 46-154 84-162 84-9 0-16-9-16-20z"/>
  <path id="p1BNhuwhRP" d="m830 2825c0-22 4-25 35-25 28 0 35-4 35-20 0-15 7-20 25-20 15 0 25-6 25-14 0-17 22-26 61-26 22 0 29-5 29-20 0-16 7-20 35-20 34 0 35 1 34 38-2 28-3 31-6 10l-4-26-129 74c-71 41-132 74-135 74s-5-11-5-25z"/>
  <path d="m2010 2789c0-24 4-29 25-29 15 0 25-6 25-14 0-15 21-26 51-26 10 0 19-6 19-14 0-17 22-26 61-26 22 0 29-5 29-20 0-16 7-20 35-20 19 0 35 4 35 8s-35 28-77 52c-43 24-106 60-140 81l-63 38z"/>
  <path id="pHPgGTLCD" d="m2340 2595c0-22 4-25 35-25 43 0 44 10 6 33-38 22-41 22-41-8z"/>
  <path id="pWI89zYPZ" d="m263 2524c-7-19 13-34 45-34 12 0 22-6 22-14 0-15 21-26 51-26 10 0 19-6 19-14 0-15 21-26 51-26 10 0 19-6 19-14 0-17 22-26 61-26 20 0 29 5 29 17 0 9-3 14-6 11-3-4-63 27-134 68s-134 74-140 74-13-7-17-16z"/>
  <path id="pHE4vLsaR" d="m2160 650c0-178 0-181 20-170 19 10 20 21 20 165 0 133 2 154 15 149 10-4 15 0 15 15 0 17-6 21-35 21h-35z"/>
  <path id="pXoaMDqtV" d="m10 812c0-7 123-82 135-82 3 0 5 11 5 25 0 22-4 25-35 25-28 0-35 4-35 20s-7 20-35 20c-19 0-35-4-35-8z"/>
  <path id="pFtUvwpCJ" d="m2600 760c0-16-7-20-35-20-31 0-35-3-35-25 0-14 2-25 5-25 12 0 135 75 135 82 0 4-16 8-35 8-28 0-35-4-35-20z"/>
  <path id="p10m1m4Rem" d="m2400 692c0-8 52-42 64-42 3 0 6 11 6 25 0 22-4 25-35 25-19 0-35-4-35-8z"/>
  <path id="pbyKNc3Zi" d="m270 662c0-7 123-82 135-82 3 0 5 11 5 25 0 22-4 25-35 25-28 0-35 4-35 20s-7 20-35 20c-19 0-35-4-35-8z"/>
  <path id="pku5jY2sz" d="m530 512c0-7 123-82 135-82 3 0 5 11 5 25 0 22-4 25-35 25-28 0-35 4-35 20s-7 20-35 20c-19 0-35-4-35-8z"/>
  <path id="pYNCREZGh" d="m1930 365c0-30 3-30 41-8 38 23 37 33-6 33-31 0-35-3-35-25z"/>
  <path id="p15lqh8J5M" d="m790 362c0-7 123-82 135-82 3 0 5 11 5 25 0 22-4 25-35 25-28 0-35 4-35 20s-7 20-35 20c-19 0-35-4-35-8z"/>
  <path id="p8ZjCmqTL" d="m1030 222c0-8 52-42 64-42 3 0 6 11 6 25 0 22-4 25-35 25-19 0-35-4-35-8z"/>
 </g>
 <g id="l2AXQr78ga1P3HZSBXxX4Nd" transform="translate(-10 -15.629)" fill="#263973">
  <path d="m1233 3092-133-77v-157c0-136-2-157-15-152s-15-70-15-645v-651h29c18 0 83 31 170 81l141 81v793c0 714-2 793-16 799-23 9-17 11-161-72z"/>
  <path id="p1F1HoGpFJ" d="m690 2776-125-73-5-154c-5-140-7-154-22-151-17 3-18-34-18-648v-650h37c27 0 70 19 170 76l133 76v1528h35c28 0 35-4 35-20s7-20 35-20c19 0 35 4 35 8 0 10-157 102-173 102-7-1-68-34-137-74z"/>
  <path id="pFvJpk0mS" d="m143 2462-133-76v-1586l23-5c16-4 58 15 155 71l132 76v789c0 769 0 789-19 799-11 5-21 10-23 9-2 0-63-35-135-77z"/>
  <path id="ppSCSwPFg" d="m430 2425c0-22 4-25 35-25 43 0 45 14 5 35-38 20-40 19-40-10z"/>
 </g>
 <g id="l7ejPizOlXQ2Dzk0xdeslVQ" transform="translate(-10 -15.629)" fill="#2d436a">
  <path id="phFucpt1Z" d="m1382 3144c2-23 9-30 31-32 15-2 27-9 27-16 0-8 15-20 33-27 17-7 38-19 45-26s24-13 38-13 24-6 24-15c0-8 11-17 25-21 14-3 25-9 25-13 0-13 70-41 100-41 20 0 30 5 30 15 0 8-6 15-13 15s-67 31-133 68c-65 38-145 83-177 101l-59 33z"/>
  <path id="p1BbWYoyqX" d="m1880 2865c0-22 4-25 35-25 43 0 44 10 6 33-38 22-41 22-41-8z"/>
  <path id="pnMsqXE5w" d="m830 2830c0-15 7-20 25-20s25-5 25-20c0-16 7-20 35-20 42 0 45 12 8 30-16 8-40 22-55 32-33 23-38 23-38-2z"/>
  <path id="pk5i3BZWq" d="m2720 2040c0-216 4-340 10-340 18 0 21 46 18 369-1565.9 1247.4-28.103 527.08-28-29z"/>
  <path id="p7f1CPDGp" d="m1e3 2726c0-26 16-36 61-36 40 0 36 12-10 38-48 27-51 27-51-2z"/>
  <path id="puAQztSqq" d="m310 2495c0-22 4-25 35-25 28 0 35-4 35-20s7-20 35-20 35-4 35-20 7-20 35-20c42 0 45 12 8 31-16 8-60 33-100 57-39 23-74 42-77 42s-6-11-6-25z"/>
  <path d="m30 802c0-7 1023-602 1035-602 3 0 5 11 5 25 0 22-4 25-35 25-28 0-35 4-35 20 0 15-7 20-25 20-16 0-25 6-25 15 0 10-11 15-35 15-28 0-35 4-35 20s-7 20-35 20-35 4-35 20-7 20-35 20-35 4-35 20c0 15-7 20-25 20-16 0-25 6-25 15 0 10-11 15-35 15-28 0-35 4-35 20s-7 20-35 20-35 4-35 20-7 20-35 20-35 4-35 20c0 15-7 20-25 20-16 0-25 6-25 15 0 10-11 15-35 15-28 0-35 4-35 20s-7 20-35 20-35 4-35 20-7 20-35 20-35 4-35 20c0 15-7 20-25 20-16 0-25 6-25 15 0 10-11 15-35 15-28 0-35 4-35 20s-7 20-35 20c-19 0-35-4-35-8z"/>
  <path id="pnmZzxVyB" d="m2210 802c0-4 57-41 128-81l127-73 33 18c49 26 40 38-23 30-51-6-55-5-55 14 0 16-7 20-35 20s-35 4-35 20-7 20-35 20-35 4-35 20-7 20-35 20c-19 0-35-4-35-8z"/>
  <path id="pU8f0mPdG" d="m2650 790c0-16-7-20-35-20-31 0-35-3-35-25 0-14 2-25 5-25 12 0 135 75 135 82 0 4-16 8-35 8-28 0-35-4-35-20z"/>
  <path id="p1AY5EojRN" d="m1650 492c0-7 263-162 275-162 3 0 5 11 5 25 0 22-4 25-35 25-28 0-35 4-35 20s-7 20-35 20-35 4-35 20-7 20-35 20-35 4-35 20-7 20-35 20c-19 0-35-4-35-8z"/>
  <path id="pJQ7cGGOj" d="m2100 470c0-16-7-20-35-20-24 0-35-5-35-15 0-9-9-15-25-15-20 0-25-5-25-25 0-14 2-25 5-25 12 0 185 105 185 112 0 5-16 8-35 8-28 0-35-4-35-20z"/>
  <path id="p1CvccTuGL" d="m1080 192c0-7 123-82 135-82 3 0 5 11 5 25 0 22-4 25-35 25-28 0-35 4-35 20s-7 20-35 20c-19 0-35-4-35-8z"/>
  <path id="p3g9ra78P" d="m1600 185c0-9-9-15-25-15-18 0-25-5-25-20 0-16-7-20-35-20-31 0-35-3-35-25 0-14 2-25 5-25s42 21 85 46c81 46 101 74 55 74-16 0-25-6-25-15z"/>
  <path id="pwewnkV6D" d="m1270 82c0-8 52-42 64-42 3 0 6 11 6 25 0 22-4 25-35 25-19 0-35-4-35-8z"/>
  <path id="pg5UrdveW" d="m1360 40c0-23 26-26 53-6 25 20 21 26-18 26-28 0-35-4-35-20z"/>
 </g>
 <g id="l2gLZ8B2o2qQiF5uhVL2Ldk" transform="translate(-10 -15.629)" fill="#3d5d9c">
  <path id="ppMv3TcBX" d="m1380 2280c0-596-2-681-15-686-31-12-11-31 103-95 115-66 330-190 667-385 94-54 192-109 220-123 27-15 55-32 63-39 7-6 18-12 23-12 6 0 17-7 25-15 9-8 26-15 40-15s24-6 24-14c0-17 22-26 61-26 26 0 29 3 29 34 0 35-13 46-51 46-10 0-19 7-19 15s-11 17-25 21c-14 3-25 10-25 14 0 5-10 12-22 16-13 4-25 10-28 13-3 4-53 36-112 72-95 56-108 67-108 92 0 17-5 27-15 27-8 0-15 9-15 20 0 12-11 42-24 68s-27 69-31 95-11 47-16 47-9 6-9 14-21 26-47 42c-222 128-312 285-313 547 0 44-4 77-10 77-5 0-10 8-10 18 0 11-20 29-52 48l-53 30-3 82c-2 45 1 82 5 82s17-7 27-15c11-8 37-15 58-15h39l-3 42c-3 36-9 47-47 76-24 18-57 36-72 39-25 5-37 22-86 114-34 64-64 109-73 109-8 0-25 18-37 40-18 30-23 55-23 109 0 64-2 71-20 71-20 0-20-7-20-680z"/>
  <path id="poFyCRs7Y" d="m830 2067v-785l-85-48c-47-26-85-51-85-56 0-4 16-8 35-8 28 0 35 4 35 20s7 20 35 20c29 0 35 4 35 21 0 11 4 19 8 17 5-1 305-174 667-383 508-293 652-381 631-383-20-3-26-9-26-28 0-13 2-24 5-24s27 12 55 27l50 28v159c0 136 2 157 15 152 11-4 15 1 15 17 0 19-82 69-530 326-292 167-530 307-530 312s16 9 35 9c31 0 35 3 35 25 0 14-3 25-6 25s-32-16-65-35l-59-34v1257l-102 58c-57 32-118 66-135 77l-33 19z"/>
  <path id="payavAE4d" d="m290 1751v-780l-110-62c-60-35-110-67-110-71s16-8 35-8c28 0 35 4 35 20s7 20 35 20 35 4 35 19 9 20 43 23c40 5 70-12 699-374 489-282 663-378 678-373 19 6 20 15 20 161 0 85 2 154 6 154 3 0 52-27 109-60s106-60 109-60c4 0 6 11 6 25 0 22-4 25-35 25-28 0-35 4-35 20s-7 20-35 20-35 4-35 20-7 20-30 20c-17 0-30 5-30 13-1 6-87 61-193 121-398 227-862 499-874 513-9 11-16 12-32 4-11-6-22-11-25-11s-6 283-6 628v629l-125 71c-69 40-127 72-130 72s-5-351-5-779z"/>
  <path id="p1FbL5FtRz" d="m1990 2338v-153l188-106 7-97c9-141 9-142 50-142h35v64c0 61-15 202-26 238-3 9-37 35-75 59-97 58-99 61-99 127 0 31-3 81-6 110-7 51-7 52-40 52h-34z"/>
  <path id="pIEKeH6sW" d="m1992 1851c4-130 8-137 131-208l77-46v-248l38 3 37 3 3 140c1 77 0 150-3 162-3 14-31 37-73 63-102 60-119 82-129 165l-8 70-38 3-39 3z"/>
  <path d="m2700 820c0-16-7-20-35-20-31 0-35-3-35-25 0-14 2-25 5-25s27 12 55 28c52 28 68 62 30 62-13 0-20-7-20-20z"/>
  <path id="pQVlyafLX" d="m26 817c-18-13-18-14-1-21 22-8 28-3 23 19-3 14-5 14-22 2z"/>
  <path id="pdaUX6nNg" d="m2230 792c0-5 53-38 119-75l118-68 57 33c31 18 56 36 56 40s-16 8-35 8c-28 0-35-4-35-20s-7-20-35-20c-24 0-35 5-35 15s-11 15-35 15c-28 0-35 4-35 20s-7 20-35 20-35 4-35 20-7 20-35 20c-19 0-35-4-35-8z"/>
  <path d="m170 722c0-7 123-82 135-82 3 0 5 11 5 25 0 22-4 25-35 25-28 0-35 4-35 20s-7 20-35 20c-19 0-35-4-35-8z"/>
  <path d="m430 572c0-7 123-82 135-82 3 0 5 11 5 25 0 22-4 25-35 25-28 0-35 4-35 20s-7 20-35 20c-19 0-35-4-35-8z"/>
  <path id="p12WxuNvKq" d="m690 422c0-7 123-82 135-82 3 0 5 11 5 25 0 22-4 25-35 25-28 0-35 4-35 20s-7 20-35 20c-19 0-35-4-35-8z"/>
  <path id="p1WflKUQk" d="m1960 395c0-9-9-15-25-15-20 0-25-5-25-25 0-14 3-25 6-25 12 0 114 65 114 72 0 5-16 8-35 8-24 0-35-5-35-15z"/>
  <path id="pKL7AFkl" d="m950 272c0-8 52-42 64-42 3 0 6 11 6 25 0 22-4 25-35 25-19 0-35-4-35-8z"/>
  <path id="p2hgNOUWE" d="m1530 135c0-30 3-30 41-8 38 23 37 33-6 33-31 0-35-3-35-25z"/>
  <path id="p1587Hb0SQ" d="m1220 112c0-8 52-42 64-42 3 0 6 11 6 25 0 22-4 25-35 25-19 0-35-4-35-8z"/>
 </g>
 <g transform="translate(-10 -15.629)" fill="#496dae">
  <path id="pNvhplMTm" d="m1385 2973c4-104 7-196 7-206-1-9 3-15 8-12s29-32 54-77c42-77 66-105 30-37-8 17-14 35-12 40s28-37 58-93c43-80 60-103 77-104 39-2 136-75 120-90-3-4-32 10-64 29-50 31-59 34-64 19-13-36 20-75 34-39 3 7 6 5 6-5 1-13 9-18 31-18 20 0 30-5 30-15s10-15 33-15h32l2 193c3 205-7 293-38 343-10 17-19 34-19 38 0 3 18 6 40 6 33 0 40-3 40-20 0-16 7-20 35-20s35-4 35-20 7-20 35-20 35-4 35-20 7-20 30-20c25 0 30-4 30-25 0-22 4-25 35-25 43 0 43 7 1 42-43 35-268 165-287 165-7 0-90 43-182 96-93 54-171 97-175 97-3 0-2-84 3-187z"/>
  <path id="p12O1v1ICP" d="m1994 2488c16-246 21-291 34-296 6-2 12-12 12-23 0-14 7-19 25-19 16 0 25-6 25-15 0-10 10-15 31-15 22 0 32-5 36-20 3-11 11-20 18-20 10 0 12-13 8-55-4-36-2-55 5-55 11 0 27-58 19-67-3-3-40 16-82 41-45 27-88 46-105 46-29 0-30-2-30-44 0-25 5-48 10-51 6-3 10-22 10-41s-4-34-10-34c-5 0-10-16-10-35 0-24 5-35 15-35 9 0 15-9 15-25 0-18 5-25 20-25 11 0 20-7 20-15 0-9 9-15 25-15s25-6 25-15c0-10 11-15 35-15 28 0 35-4 35-20 0-13 7-20 20-20 19 0 20-7 20-90v-90l-49 30c-26 17-56 30-65 30s-19 7-22 15c-4 8-17 15-30 15-15 0-24 6-24 15 0 8-9 15-20 15s-20 7-20 15c0 9-9 15-25 15-17 0-25 5-25 18 0 20-49 72-68 72-7 0-12 9-12 20s-4 20-10 20c-5 0-10 7-10 15s-7 15-15 15c-10 0-15 10-15 29 0 16-4 31-9 33-15 5-41 185-41 280 0 72-3 88-15 88-8 0-15 5-15 10 0 6-8 10-18 10s-25 9-35 20c-10 12-29 20-48 20-40 0-34-18 16-47 21-12 40-29 41-37 1-9-2-14-7-10-5 3-6 10-3 16 4 7 2 8-4 4-8-5-4-22 13-57 14-27 29-49 34-49 4 0 8-17 8-37 1-76 23-193 48-248 45-104 116-180 251-273 11-7 12-9 4-5-12 5-13 4-3-8 6-8 12-17 12-22 2-22 53-107 61-102 5 3 7 0 4-8-6-17 34-89 46-82 9 6 23-25 15-33-3-3-5 1-5 8s-3 11-6 7c-9-8 49-106 66-112 8-3 26-15 40-26 29-24-13-2-200 107-491 283-649 374-654 374-3 0-6-11-6-25 0-22 4-25 35-25 28 0 35-4 35-20 0-15 7-20 25-20 15 0 25-6 25-14 0-15 21-26 51-26 10 0 19-7 19-15 0-10 11-15 35-15 28 0 35-4 35-20s7-20 35-20 35-4 35-20c0-15 7-20 25-20 16 0 25-6 25-15 0-10 11-15 35-15 28 0 35-4 35-20s7-20 35-20 35-4 35-19c0-11 9-23 22-27 12-3 28-13 36-20 7-8 24-14 38-14 15 0 24-6 24-15 0-10 11-15 35-15 28 0 35-4 35-20 0-15 7-20 29-20 21 0 32-6 36-19 3-11 16-23 28-27 11-4 27-13 35-20 7-8 22-14 33-14s22-7 25-15c4-8 14-15 23-15 10 0 27-9 39-21 12-11 36-25 52-31 17-5 30-14 30-18s11-11 25-14c14-4 25-10 25-15s16-15 35-21 35-15 35-18c0-4 33-25 74-47 100-53 106-48 106 88v101l-220 406v199c0 197 0 201-26 248-15 26-54 100-87 163s-63 117-66 120-19 32-36 65c-16 32-62 119-101 192-78 146-114 183-181 183h-36zm45-180c1-77 2-78 99-137 39-23 73-48 75-55 10-25 29-202 25-226l-4-25-7 25c-3 14-9 69-12 122l-7 97-188 106 1 125c1 96 3 115 10 80 4-25 8-75 8-112zm5-456c8-80 26-102 132-166 34-20 65-43 68-52 10-27 7-242-4-249-6-4-10 38-10 118v124l-77 46c-116 67-127 82-132 179-4 99 13 99 23 0zm46-407c0-2-7-1-17 2-12 5-14 3-8-8 5-8 4-11 0-6-5 4-10 14-11 22-2 12 2 12 17 5 10-6 19-13 19-15z"/>
  <path id="p1306m9mNZ" d="m1560 2479c12-23 24-38 27-35 5 5-35 76-43 76-2 0 5-18 16-41z"/>
  <path id="pTyFcARJe" d="m1293 1552c-35-20-63-40-63-44s16-8 35-8c28 0 35 4 35 20s7 20 35 20c31 0 35 3 35 25 0 14-3 25-7 25-5-1-36-17-70-38z"/>
  <path id="p1293AXoVW" d="m1110 1432c0-4 44-33 98-64 673-387 1026-588 1033-588 5 0 9 11 9 25 0 20-6 27-30 32-16 3-30 9-30 14s-11 9-25 9c-15 0-25 6-25 14 0 15-21 26-51 26-10 0-19 6-19 14 0 15-21 26-51 26-10 0-19 6-19 14 0 15-21 26-51 26-10 0-19 6-19 14 0 15-21 26-51 26-10 0-19 7-19 15 0 10-11 15-35 15-28 0-35 4-35 20s-7 20-35 20-35 4-35 20-7 20-35 20-35 4-35 20-7 20-35 20-35 4-35 20c0 15-7 20-25 20-15 0-25 6-25 14 0 15-21 26-51 26-10 0-19 6-19 14 0 17-22 26-61 26-22 0-29 5-29 20s-7 20-25 20c-16 0-25 6-25 15 0 10-11 15-35 15-28 0-35 4-35 20s-7 20-35 20-35 4-35 20-7 20-35 20c-19 0-35-4-35-8z"/>
  <path id="p1GmZUq21c" d="m693 1203c-73-42-133-80-133-83 0-7 364-220 375-220 3 0 5 11 5 25 0 20-5 25-25 25-15 0-25 6-25 14 0 15-21 26-51 26-10 0-19 7-19 15 0 10-11 15-35 15-28 0-35 4-35 20s-7 20-35 20-35 4-35 20c0 15-7 20-25 20s-25 5-25 20 7 20 25 20 25 5 25 20c0 16 7 20 35 20s35 4 35 20 7 20 35 20c19 0 35 5 35 10 0 6 9 10 20 10s20-7 20-15c0-10 11-15 35-15 28 0 35-4 35-20s7-20 35-20 35-4 35-20 7-20 35-20 35-4 35-20c0-15 7-20 25-20 16 0 25-6 25-15 0-10 11-15 35-15 28 0 35-4 35-20s7-20 35-20 35-4 35-20 7-20 35-20 35-4 35-20c0-15 7-20 25-20 16 0 25-6 25-15 0-10 11-15 35-15 28 0 35-4 35-20s7-20 35-20 35-4 35-20c0-15 7-20 25-20 16 0 25-6 25-15 0-10 11-15 35-15 28 0 35-4 35-20s7-20 35-20 35-4 35-20 7-20 35-20 35-4 35-20c0-15 7-20 25-20 16 0 25-6 25-15 0-10 11-15 35-15 28 0 35-4 35-20s7-20 35-20 35-4 35-20c0-15 7-20 25-20 15 0 25-6 25-14 0-15 21-26 51-26 10 0 19-7 19-15s9-15 20-15c13 0 20-7 20-20 0-25 11-25 40-2l23 19-139 80c-737 427-1218 703-1223 703-3 0-66-35-138-77z"/>
  <path id="pPHQXypQh" d="m153 892c-127-73-152-92-118-92 8 0 15-4 15-8 0-8 52-42 64-42 3 0 6 11 6 25 0 16-6 25-15 25-8 0-15 9-15 20 0 16 7 20 35 20s35 4 35 20 7 20 35 20 35 4 35 20 7 20 35 20 35 4 35 19c0 11-3 22-7 24-5 3-68-29-140-71z"/>
  <path id="p17KcpU9jD" d="m310 925c0-22 4-25 35-25 28 0 35-4 35-20 0-15 7-20 25-20 15 0 25-6 25-14 0-15 21-26 51-26 10 0 19-7 19-15 0-10 11-15 35-15 28 0 35-4 35-20s7-20 35-20 35-4 35-20c0-15 7-20 25-20 15 0 25-6 25-14 0-15 21-26 51-26 10 0 19-7 19-15 0-10 11-15 35-15 28 0 35-4 35-20s7-20 35-20 35-4 35-20 7-20 35-20 35-4 35-20c0-15 7-20 25-20 16 0 25-6 25-15 0-10 11-15 35-15 28 0 35-4 35-20s7-20 35-20 35-4 35-20 7-20 35-20c19 0 35 3 35 8 0 7-902 532-915 532-3 0-5-11-5-25z"/>
  <path id="pefisnqiE" d="m1040 842c0-9-11-3 349-209 156-90 288-163 292-163 5 0 9 11 9 25 0 21-5 25-30 25-20 0-30 5-30 15s-11 15-35 15c-28 0-35 4-35 20s-7 20-35 20-35 4-35 20c0 15-7 20-25 20-15 0-25 6-25 14 0 15-21 26-51 26-10 0-19 7-19 15 0 10-11 15-35 15-28 0-35 4-35 20s-7 20-35 20-35 4-35 20-7 20-35 20-35 4-35 20c0 15-7 20-25 20-16 0-25 6-25 15 0 10-11 15-35 15-19 0-35-4-35-8z"/>
  <path id="pnSooPB2Q" d="m2560 735c0-30 3-30 41-8 38 23 37 33-6 33-31 0-35-3-35-25z"/>
  <path id="pFZqfTiSC" d="m310 642c0-8 52-42 64-42 3 0 6 11 6 25 0 22-4 25-35 25-19 0-35-4-35-8z"/>
  <path d="m570 492c0-8 52-42 64-42 3 0 6 11 6 25 0 22-4 25-35 25-19 0-35-4-35-8z"/>
  <path id="puFrnGpRx" d="m1280 366c0-23 4-26 35-26 28 0 35-4 35-20s7-20 35-20 35-4 35-20c0-15 7-20 25-20 16 0 25-6 25-15 0-10 11-15 35-15 28 0 35-4 35-20 0-13 7-20 20-20 15 0 20-7 20-25 0-14 3-25 6-25 10 0 64 34 64 40-1 5-340 201-360 208-6 2-10-8-10-22z"/>
  <path id="pHkMGDduV" d="m1880 362c0-4 9-13 20-20 16-10 24-10 40 0 30 19 24 28-20 28-22 0-40-3-40-8z"/>
  <path id="pmw9AU3hJ" d="m830 342c0-8 52-42 64-42 3 0 6 11 6 25 0 22-4 25-35 25-19 0-35-4-35-8z"/>
  <path id="p18KpKlBkx" d="m1020 233c0-5 16-18 35-31l35-22v30c0 28-3 30-35 30-19 0-35-3-35-7z"/>
  <path id="p1Glkdfk8g" d="m1460 105c0-9-9-15-25-15-20 0-25-5-25-25 0-14 3-25 6-25 12 0 114 65 114 72 0 5-16 8-35 8-24 0-35-5-35-15z"/>
  <path id="pd7JvmIUA" d="m1290 72c0-8 52-42 64-42 3 0 6 11 6 25 0 22-4 25-35 25-19 0-35-4-35-8z"/>
 </g>
 <g id="l10XpUYJe9PpJWoNbJfne0N" transform="translate(-10 -15.629)" fill="#5177b8">
  <path id="pgJt4cifi" d="m1626 3011c-3-5 16-49 44-99 39-72 70-165 70-209 0-2 7-3 15-3 13 0 15 21 15 130 0 128-2 136-33 131-4-1-24 9-45 22-20 13-42 27-49 30-6 4-14 3-17-2z"/>
  <path id="p118Ti0iVp" d="m2040 2755c0-22 4-25 35-25 43 0 44 10 6 33-38 22-41 22-41-8z"/>
  <path id="pnzGflRsu" d="m2230 2645c0-22 4-25 35-25 43 0 44 10 6 33-38 22-41 22-41-8z"/>
  <path id="pbT8r7Nko" d="m1990 2591c0-43 4-60 15-65 10-4 15 1 15 14 0 25 2 25 46-5 36-25 92-119 209-350 17-33 33-62 36-65 6-5 112-204 158-297 44-89 51-73 51 111 0 163 0 164-32 232-18 38-48 96-67 129-20 33-43 74-52 90-11 20-59 57-145 110-105 66-132 88-147 118-15 32-22 37-52 37h-35z"/>
  <path id="p18wb2dpxv" d="m1735 2587c-4-19-5-72-3-119 3-79 2-85-14-77-15 8-18 6-18-11 0-16 6-20 35-20h35v130c0 107-3 130-15 130-8 0-17-14-20-33z"/>
  <path id="p1DSKfkPPw" d="m2370 2565c0-22 4-25 35-25 28 0 35-4 35-20s7-20 35-20 35-4 35-20 7-20 35-20 35-4 35-20 7-20 35-20 35-4 35-20 7-20 35-20c19 0 35 4 35 8 0 7-333 202-345 202-3 0-5-11-5-25z"/>
  <path d="m1600 2440c0-13 7-20 20-20 11 0 20 3 20 8 0 4-9 13-20 20-18 11-20 10-20-8z"/>
  <path id="pCNQyCmHB" d="m2020 2185c0-22 4-25 35-25 43 0 44 10 6 33-38 22-41 22-41-8z"/>
  <path d="m1680 2162c0-5 11-15 25-22s25-19 25-27c0-7 5-13 10-13 6 0 10 16 10 35 0 33-2 35-35 35-19 0-35-4-35-8z"/>
  <path id="p19rLeunRy" d="m2140 2115c0-16 6-25 15-25 8 0 15-4 15-10 0-5 9-10 20-10 30 0 25 33-9 53-38 22-41 22-41-8z"/>
  <path id="pcREX4vgw" d="m2110 1912c0-8 52-42 64-42 3 0 6 11 6 25 0 22-4 25-35 25-19 0-35-4-35-8z"/>
  <path id="pEYRt5Fsa" d="m2190 1890c0-18 6-33 15-37 23-8 28 1 20 36-9 41-35 41-35 1z"/>
  <path id="p19dBRdCnD" d="m2010 1745c0-34 1-35 36-35h37l-27 26c-14 15-26 31-26 35 0 5-4 9-10 9-5 0-10-16-10-35z"/>
  <path d="m1780 1746c13-34 33-66 42-66s11 52 2 74c-3 9-17 16-30 16-21 0-22-3-14-24z"/>
  <path d="m2490 1570v-180l123-226 122-227 3 209 2 209-106 198c-141 261-144 262-144 17z"/>
  <path id="pbAvVg7wf" d="m2160 1635c0-16 6-25 15-25 8 0 15-4 15-10 0-5 9-10 20-10 30 0 25 33-9 53-38 22-41 22-41-8z"/>
  <path id="pOVfkzTXj" d="m1380 1565c0-22 4-25 35-25 28 0 35-4 35-20s7-20 35-20c19 0 35 4 35 8 0 7-123 82-135 82-3 0-5-11-5-25z"/>
  <path id="pvc1UNpyo" d="m1210 1504c-52-31-97-57-99-59-7-7 28-35 87-70 33-19 63-35 66-35s6 11 6 25c0 22-4 25-35 25-28 0-35 4-35 20 0 11-4 20-10 20-5 0-10 9-10 20 0 16 7 20 35 20s35 4 35 20 7 20 35 20c31 0 35 3 35 25 0 14-3 25-7 25-5-1-51-26-103-56z"/>
  <path id="pw9aPjbwm" d="m2030 1492c0-8 52-42 64-42 3 0 6 11 6 25 0 22-4 25-35 25-19 0-35-4-35-8z"/>
  <path id="pCk0rNoIX" d="m1570 1455c0-22 4-25 35-25 28 0 35-4 35-20s7-20 35-20 35-4 35-20 7-20 35-20c19 0 35 4 35 8 0 7-193 122-205 122-3 0-5-11-5-25z"/>
  <path id="p1CUdIHxeG" d="m2150 1422c0-8 52-42 64-42 3 0 6 11 6 25 0 22-4 25-35 25-19 0-35-4-35-8z"/>
  <path id="pCnD8jKrI" d="m1830 1305c0-22 4-25 35-25 28 0 35-4 35-20s7-20 35-20c19 0 35 4 35 8 0 7-123 82-135 82-3 0-5-11-5-25z"/>
  <path id="pCBmtZREO" d="m1320 1312c0-8 52-42 64-42 3 0 6 11 6 25 0 22-4 25-35 25-19 0-35-4-35-8z"/>
  <path id="pSXlhIusX" d="m693 1202c-35-20-63-40-63-44s16-8 35-8c28 0 35 4 35 20s7 20 35 20c31 0 35 3 35 25 0 14-3 25-7 25-5-1-36-17-70-38z"/>
  <path id="p1HToFRFTV" d="m1530 1192c0-7 403-242 415-242 3 0 5 11 5 25 0 22-4 25-35 25-28 0-35 4-35 20s-7 20-35 20-35 4-35 20-7 20-35 20-35 4-35 20-7 20-35 20-35 4-35 20-7 20-35 20-35 4-35 20-7 20-35 20c-19 0-35-4-35-8z"/>
  <path id="pUOejh4dy" d="m2090 1155c0-22 4-25 35-25 28 0 35-4 35-20s7-20 35-20c19 0 35 4 35 8 0 7-123 82-135 82-3 0-5-11-5-25z"/>
  <path id="pnE6JK7uQ" d="m1050 1125c0-22 4-25 35-25 43 0 44 10 6 33-38 22-41 22-41-8z"/>
  <path id="p7CKFExPS" d="m630 1082c0-7 193-122 205-122 3 0 5 11 5 25 0 22-4 25-35 25-28 0-35 4-35 20s-7 20-35 20-35 4-35 20-7 20-35 20c-19 0-35-4-35-8z"/>
  <path id="paSydfjka" d="m2280 1045c0-20 5-25 25-25 15 0 25-6 25-14 0-17 22-26 61-26 22 0 29-5 29-20 0-16 7-20 35-20 19 0 35 4 35 8 0 7-193 122-205 122-3 0-5-11-5-25z"/>
  <path id="p79D3iW0M" d="m1240 1015c0-22 4-25 35-25 28 0 35-4 35-20s7-20 35-20c19 0 35 4 35 8 0 7-123 82-135 82-3 0-5-11-5-25z"/>
  <path id="p1A8q2GFki" d="m290 935c0-22 4-25 35-25 28 0 35-4 35-20s7-20 35-20c19 0 35 4 35 8 0 7-123 82-135 82-3 0-5-11-5-25z"/>
  <path id="pGKxJfppy" d="m890 933c0-5 16-18 35-31l35-22v30c0 28-3 30-35 30-19 0-35-3-35-7z"/>
  <path d="m1430 905c0-22 4-25 35-25 28 0 35-4 35-20s7-20 35-20c19 0 35 4 35 8 0 7-123 82-135 82-3 0-5-11-5-25z"/>
  <path id="p3INakTqj" d="m2540 895c0-22 4-25 35-25 28 0 35-4 35-20s7-20 35-20 35-4 35-20-7-20-35-20-35-4-35-20-7-20-35-20c-31 0-35-3-35-25 0-14 2-25 5-25 12 0 185 103 185 110s-173 110-185 110c-3 0-5-11-5-25z"/>
  <path id="p1CymEEwyC" d="m93 857c-40-23-73-45-73-48 0-6 1005-589 1015-589 3 0 5 11 5 25 0 22-4 25-35 25-28 0-35 4-35 20 0 15-7 20-25 20-16 0-25 6-25 15 0 10-11 15-35 15-28 0-35 4-35 20s-7 20-35 20-35 4-35 20-7 20-35 20-35 4-35 20c0 15-7 20-25 20-16 0-25 6-25 15 0 10-11 15-35 15-28 0-35 4-35 20s-7 20-35 20-35 4-35 20-7 20-35 20-35 4-35 20c0 15-7 20-25 20-16 0-25 6-25 15 0 10-11 15-35 15-28 0-35 4-35 20s-7 20-35 20-35 4-35 20-7 20-35 20-35 4-35 20c0 15-7 20-25 20-16 0-25 6-25 15 0 10-11 15-35 15-19 0-35 5-35 10 0 6 9 10 20 10 13 0 20 7 20 20 0 16 7 20 35 20 31 0 35 3 35 25 0 14-3 25-7 24-5 0-41-19-80-42z"/>
  <path d="m970 882c0-8 52-42 64-42 3 0 6 11 6 25 0 22-4 25-35 25-19 0-35-4-35-8z"/>
  <path d="m2140 842c0-5 12-15 28-23 15-7 84-46 154-86 69-40 129-73 132-73s6 11 6 25c0 22-4 25-35 25-28 0-35 4-35 20s-7 20-35 20-35 4-35 20c0 15-7 20-25 20-16 0-25 6-25 15 0 10-10 15-30 15s-30 5-30 15-11 15-35 15c-19 0-35-4-35-8z"/>
  <path id="p2cyOF0Uw" d="m550 785c0-22 4-25 35-25 28 0 35-4 35-20s7-20 35-20c19 0 35 4 35 8 0 7-123 82-135 82-3 0-5-11-5-25z"/>
  <path id="p1F1esYoZT" d="m1110 802c0-8 52-42 64-42 3 0 6 11 6 25 0 22-4 25-35 25-19 0-35-4-35-8z"/>
  <path id="pRT3jngPV" d="m1690 755c0-22 4-25 35-25 28 0 35-4 35-20s7-20 35-20c19 0 35 4 35 8 0 7-123 82-135 82-3 0-5-11-5-25z"/>
  <path d="m740 675c0-22 4-25 35-25 28 0 35-4 35-20s7-20 35-20 35-4 35-20 7-20 35-20 35-4 35-20 7-20 35-20c19 0 35 4 35 8 0 7-263 162-275 162-3 0-5-11-5-25z"/>
  <path d="m1880 645c0-22 4-25 35-25 28 0 35-4 35-20s7-20 35-20c19 0 35 4 35 8 0 7-123 82-135 82-3 0-5-11-5-25z"/>
  <path id="pnNODdvyc" d="m1440 612c0-7 123-82 135-82 3 0 5 11 5 25 0 22-4 25-35 25-28 0-35 4-35 20s-7 20-35 20c-19 0-35-4-35-8z"/>
  <path id="pGxIWVW4g" d="m2070 535c0-22 4-25 35-25 28 0 35-4 35-20 0-23 9-25 34-7 17 13 14 16-38 45-30 18-58 32-61 32s-5-11-5-25z"/>
  <path id="pf7YGjCpi" d="m1690 472c0-7 193-122 205-122 3 0 5 11 5 25 0 22-4 25-35 25-28 0-35 4-35 20s-7 20-35 20-35 4-35 20-7 20-35 20c-19 0-35-4-35-8z"/>
  <path id="pQJC4dUXt" d="m2010 420c0-16-7-20-35-20-31 0-35-3-35-25 0-14 2-25 5-25 12 0 135 75 135 82 0 4-16 8-35 8-28 0-35-4-35-20z"/>
  <path id="pfZ4T4EqG" d="m1210 405c0-22 4-25 35-25 43 0 44 10 6 33-38 22-41 22-41-8z"/>
  <path d="m1400 295c0-22 4-25 35-25 43 0 44 10 6 33-38 22-41 22-41-8z"/>
  <path id="pViKM9tgn" d="m1590 185c0-26 22-33 49-16 10 7 8 12-10 25-32 22-39 20-39-9z"/>
  <path d="m1100 182c0-7 123-82 135-82 3 0 5 11 5 25 0 22-4 25-35 25-28 0-35 4-35 20s-7 20-35 20c-19 0-35-4-35-8z"/>
 </g>
 <g id="l2WxKmBTbF2L3s4LY2AFPUb" transform="translate(-10 -15.629)" fill="#587fc1">
  <path id="poHf6xPCb" d="m1990 2708c1-81 5-118 15-131 13-18 14-16 17 15l3 33 20-40c17-32 43-53 149-120 86-53 134-90 145-110 9-16 32-57 52-90 19-33 49-91 67-129 32-68 32-68 32-236v-167l116-214c63-118 120-218 125-224 5-5 9 95 9 263v273l-60 110c-33 60-60 111-60 113 0 1-22 43-50 92-40 71-50 98-50 135 0 42-3 48-37 70-26 17-51 50-84 112l-47 87h34c27 0 34-4 34-20s7-20 35-20 35-4 35-20 7-20 35-20 35-4 35-20 7-20 35-20 35-4 35-20 7-20 35-20 35-4 35-20c0-13 7-20 20-20s20 7 20 18c-1 12-103 75-352 217-193 110-359 208-367 218-9 9-19 17-23 17-5 0-8-51-8-112z"/>
  <path id="pYuUuw9MM" d="m1740 2400c0-17-3-19-19-10-28 14-31 13-31-15 0-22 4-25 35-25 33 0 35 2 35 35 0 19-4 35-10 35-5 0-10-9-10-20z"/>
  <path id="pA6Q3Muqa" d="m1630 2192c0-5 23-21 50-36 42-23 50-32 50-57 0-22 5-29 20-29 17 0 20 7 20 40 0 39-1 40-35 40-31 0-35 3-35 25s-4 25-35 25c-19 0-35-4-35-8z"/>
  <path id="pyBgjFRYF" d="m2070 2155c0-22 4-25 35-25 43 0 44 10 6 33-38 22-41 22-41-8z"/>
  <path id="pk72GCGVM" d="m2180 1995c0-28 4-35 20-35 21 0 24 10 14 48-10 36-34 27-34-13z"/>
  <path d="m1730 1963c0-34 12-63 26-63 10 0 14 13 14 40 0 33-3 40-20 40-12 0-20-7-20-17z"/>
  <path d="m2060 1942c0-6 128-86 162-100 5-2 8 6 8 17 0 12-6 21-15 21-8 0-15 7-15 15 0 10-11 15-35 15-28 0-35 4-35 20s-7 20-35 20c-19 0-35-4-35-8z"/>
  <path id="pRQpJNhfP" d="m1750 1835c0-25 28-85 39-85 12 0 14 42 5 78-7 25-44 31-44 7z"/>
  <path id="pqRIoUYJN" d="m2030 1725c0-32 2-35 30-35 23 0 30-4 30-20s7-20 35-20c45 0 44 11-3 38-21 11-50 32-65 46l-27 25z"/>
  <path id="phmqxpz8d" d="m1347 1582c-36-22-34-32 8-32 28 0 35 4 35 19 0 28-12 32-43 13z"/>
  <path id="p1FjnZw6Uv" d="m2192 1473c3-74 6-88 21-91s17 6 17 87c0 85-1 91-20 91-20 0-21-5-18-87z"/>
  <path id="ptRJsPK8R" d="m1955 1540c3-5 19-19 35-30l30-21v30c0 29-3 31-36 31-20 0-33-4-29-10z"/>
  <path d="m1500 1495c0-22 4-25 35-25 43 0 44 10 6 33-38 22-41 22-41-8z"/>
  <path d="m2100 1452c0-8 52-42 64-42 3 0 6 11 6 25 0 22-4 25-35 25-19 0-35-4-35-8z"/>
  <path id="ppyvSEJ4T" d="m1620 1425c0-22 4-25 35-25 28 0 35-4 35-20s7-20 35-20 35-4 35-20 7-20 35-20c19 0 35 4 35 8 0 7-193 122-205 122-3 0-5-11-5-25z"/>
  <path id="pT1dcB5qj" d="m1270 1342c0-7 333-202 345-202 3 0 5 11 5 25 0 22-4 25-35 25-28 0-35 4-35 20s-7 20-35 20-35 4-35 20-7 20-35 20-35 4-35 20-7 20-35 20-35 4-35 20-7 20-35 20c-19 0-35-4-35-8z"/>
  <path id="p12lDV40yZ" d="m1880 1275c0-22 4-25 35-25 28 0 35-4 35-20s7-20 35-20 35-4 35-20c0-15 7-20 25-20 16 0 25-6 25-15 0-10 11-15 35-15 28 0 35-4 35-20s7-20 35-20 35-4 35-20 7-20 35-20c19 0 35 3 35 8 0 7-382 232-395 232-3 0-5-11-5-25z"/>
  <path id="p03qAod3Q" d="m798 1262c-16-9-28-20-28-23 0-4 32-10 70-14 60-6 70-10 70-26 0-15 7-19 35-19s35-4 35-20 7-20 35-20c19 0 35 4 35 8 0 7-211 132-221 132-2 0-16-8-31-18z"/>
  <path id="pW5zcC2Bg" d="m580 1112c0-7 193-122 205-122 3 0 5 11 5 25 0 22-4 25-35 25-28 0-35 4-35 20s-7 20-35 20-35 4-35 20-7 20-35 20c-19 0-35-4-35-8z"/>
  <path id="pEIa5rB6G" d="m1170 1055c0-22 4-25 35-25 43 0 44 10 6 33-38 22-41 22-41-8z"/>
  <path id="ppdI2koII" d="m2400 975c0-22 4-25 35-25 28 0 35-4 35-20s7-20 35-20c19 0 35 4 35 8 0 7-123 82-135 82-3 0-5-11-5-25z"/>
  <path id="psWt91SIc" d="m233 936c-29-16-53-34-53-38s16-8 35-8c28 0 35 4 35 20s7 20 35 20c38 0 46 14 18 28-13 6-33 0-70-22z"/>
  <path id="pGn0uf1th" d="m840 962c0-8 52-42 64-42 3 0 6 11 6 25 0 22-4 25-35 25-19 0-35-4-35-8z"/>
  <path id="pC15O3T6b" d="m1360 945c0-22 4-25 35-25 43 0 44 10 6 33-38 22-41 22-41-8z"/>
  <path d="m1950 952c0-7 193-122 205-122 3 0 5 11 5 25 0 22-4 25-35 25-28 0-35 4-35 20s-7 20-35 20-35 4-35 20-7 20-35 20c-19 0-35-4-35-8z"/>
  <path id="p1FL6MOQdr" d="m340 905c0-22 4-25 35-25 28 0 35-4 35-20s7-20 35-20 35-4 35-20 7-20 35-20c19 0 35 4 35 8 0 7-193 122-205 122-3 0-5-11-5-25z"/>
  <path id="ppXGw3VoZ" d="m943 895c36-32 47-31 47 0 0 22-4 25-37 25l-38-1z"/>
  <path id="p1U8X7dQc" d="m2590 865c0-22 4-25 35-25 28 0 35-4 35-20s7-20 35-20c19 0 35 4 35 8 0 7-123 82-135 82-3 0-5-11-5-25z"/>
  <path id="p2VZqu8Sg" d="m33 823c-18-7-16-16 7-31 18-11 20-10 20 13 0 25-4 28-27 18z"/>
  <path id="p12M0gVyoq" d="m1620 795c0-22 4-25 35-25 43 0 44 10 6 33-38 22-41 22-41-8z"/>
  <path id="pGoPmaAat" d="m600 755c0-22 4-25 35-25 28 0 35-4 35-20s7-20 35-20c19 0 35 4 35 8 0 7-123 82-135 82-3 0-5-11-5-25z"/>
  <path id="p1FQAeicUk" d="m1180 762c0-7 123-82 135-82 3 0 5 11 5 25 0 22-4 25-35 25-28 0-35 4-35 20s-7 20-35 20c-19 0-35-4-35-8z"/>
  <path id="pKUu9jt6j" d="m2490 695c0-30 3-30 41-8 38 23 37 33-6 33-31 0-35-3-35-25z"/>
  <path id="p1E3mu8xII" d="m1810 685c0-22 4-25 35-25 43 0 44 10 6 33-38 22-41 22-41-8z"/>
  <path id="p1DRQPLdRE" d="m1930 615c0-22 4-25 35-25 28 0 35-4 35-20s7-20 35-20c19 0 35 4 35 8 0 7-123 82-135 82-3 0-5-11-5-25z"/>
  <path id="p3PSxAHoE" d="m860 605c0-22 4-25 35-25 28 0 35-4 35-20s7-20 35-20c19 0 35 4 35 8 0 7-123 82-135 82-3 0-5-11-5-25z"/>
  <path id="p13OHqn3yM" d="m1580 532c0-8 52-42 64-42 3 0 6 11 6 25 0 22-4 25-35 25-19 0-35-4-35-8z"/>
  <path id="paAt2pnnF" d="m1070 485c0-22 4-25 35-25 28 0 35-4 35-20s7-20 35-20c19 0 35 4 35 8 0 7-123 82-135 82-3 0-5-11-5-25z"/>
  <path id="plTrLkmBv" d="m2110 475c0-30 3-30 41-8 38 23 37 33-6 33-31 0-35-3-35-25z"/>
  <path id="pmBNaRYGx" d="m1260 375c0-22 4-25 35-25 28 0 35-4 35-20s7-20 35-20c19 0 35 4 35 8 0 7-123 82-135 82-3 0-5-11-5-25z"/>
  <path id="pzR4sDq3A" d="m1520 225c0-22 4-25 35-25 43 0 44 10 6 33-38 22-41 22-41-8z"/>
  <path id="p18NoMzFFm" d="m1073 195c36-32 47-31 47 0 0 22-4 25-37 25l-38-1z"/>
  <path id="p10TH87Szx" d="m1510 125c0-30 3-30 41-8 38 23 37 33-6 33-31 0-35-3-35-25z"/>
  <path id="p1CJUs6kqw" d="m1240 102c0-7 123-82 135-82 3 0 5 11 5 25 0 22-4 25-35 25-28 0-35 4-35 20s-7 20-35 20c-19 0-35-4-35-8z"/>
  <path id="p1lTdMh3l" d="m1390 55c0-30 3-30 41-8 38 23 37 33-6 33-31 0-35-3-35-25z"/>
 </g>
 <g id="l499Jh9N0KMJD284lNFCBal" transform="translate(-10 -15.629)" fill="#5f88ca">
  <path d="m2266 2641c-3-4 30-73 72-152 61-113 86-149 115-168 34-22 37-28 37-70 0-32 9-62 31-101 17-30 56-102 87-160 30-58 73-136 94-175l38-70-3 320-2 319-190 109c-104 59-209 119-232 133-23 13-44 20-47 15z"/>
  <path id="pAAaNuN8J" d="m1620 2415c0-22 4-25 35-25 43 0 44 10 6 33-38 22-41 22-41-8z"/>
  <path id="pfdlkOmlV" d="m2e3 2205c0-31 3-35 25-35 16 0 25-6 25-15 0-10 11-15 35-15 28 0 35-4 35-20 0-15 7-20 25-20 20 0 25-5 25-25 0-19 5-25 21-25s20 5 17 28c-2 22-18 36-95 82-51 30-93 60-93 67s-4 13-10 13c-5 0-10-16-10-35z"/>
  <path id="pSi031KdR" d="m1600 2215c0-12 28-35 44-35 3 0 6 11 6 25 0 20-5 25-25 25-15 0-25-6-25-15z"/>
  <path id="p18lFsqgsP" d="m1700 2154c0-4 8-13 17-20 15-10 17-25 14-83-3-84 5-131 25-131 11 0 14 23 14 120v120h-35c-19 0-35-3-35-6z"/>
  <path id="p60UiXotv" d="m2180 1985c0-28 4-35 20-35 21 0 24 10 14 48-10 36-34 27-34-13z"/>
  <path id="p8i5KOKLj" d="m2011 1943c2-30 3-32 6-11l4 27 59-35c32-19 61-34 64-34s6 11 6 25c0 22-4 25-35 25-28 0-35 4-35 20s-7 20-35 20c-34 0-35-1-34-37z"/>
  <path d="m2190 1885c0-14 8-29 20-35 22-12 25-4 14 38-8 30-34 28-34-3z"/>
  <path id="pA6L3caGa" d="m1740 1888c0-30 13-58 26-58 9 0 14 12 14 35 0 28-4 35-20 35-11 0-20-6-20-12z"/>
  <path id="pF3QqlWwS" d="m2070 1690c0-28 3-30 35-30 28 0 35-4 35-20 0-15 7-20 25-20 24 0 25-3 25-60 0-46 3-60 15-60 16 0 28 51 23 96-2 23-16 36-80 76l-78 47z"/>
  <path id="pj6ATZ0Hw" d="m1830 1660c31-44 40-45 40-6 0 33-2 36-31 36h-30z"/>
  <path id="pcAbK9GKJ" d="m1243 1521c-72-42-134-79-137-82-6-5 1073-629 1087-629 4 0 7 11 7 24 0 24-16 36-51 36-10 0-19 6-19 14 0 17-22 26-61 26-22 0-29 5-29 20s-7 20-25 20c-15 0-25 6-25 14 0 15-21 26-51 26-10 0-19 6-19 14 0 15-21 26-51 26-10 0-19 6-19 14 0 15-21 26-51 26-10 0-19 6-19 14 0 15-21 26-51 26-10 0-19 6-19 14 0 15-21 26-51 26-10 0-19 7-19 15 0 10-11 15-35 15-28 0-35 4-35 20s-7 20-35 20-35 4-35 20-7 20-35 20-35 4-35 20-7 20-35 20-35 4-35 20-7 20-35 20-35 4-35 20-7 20-35 20-35 4-35 20-7 20-35 20c-19 0-35 5-35 10 0 6 11 10 25 10 18 0 25 5 25 20 0 16 7 20 35 20s35 4 35 20 7 20 35 20c29 0 35 4 35 21 0 15 4 19 16 15 9-3 24-6 35-6 10 0 19-6 19-14 0-15 21-26 51-26 10 0 19-7 19-15 0-10 11-15 35-15 28 0 35-4 35-20 0-15 7-20 25-20 16 0 25-6 25-15 0-10 11-15 35-15 28 0 35-4 35-20s7-20 35-20 35-4 35-20 7-20 35-20 35-4 35-20c0-15 7-20 25-20 16 0 25-6 25-15s9-15 25-15c15 0 25-6 25-14 0-15 21-26 51-26 10 0 19-6 19-14 0-15 21-26 51-26 10 0 19-7 19-15 0-10 11-15 35-15 28 0 35-4 35-20 0-15 7-20 25-20 15 0 25-6 25-14 0-15 21-26 51-26 10 0 19-6 19-14 0-15 21-26 51-26 10 0 19-7 19-15 0-9 9-15 25-15 15 0 25-6 25-14 0-15 21-26 51-26 10 0 19-6 19-14 0-15 21-26 51-26 10 0 19-6 19-14 0-15 21-26 51-26 10 0 19-7 19-15 0-10 11-15 35-15 28 0 35-4 35-20 0-11 5-20 10-20 6 0 10-7 10-15 0-10-11-15-35-15-31 0-35-3-35-25 0-14 2-25 5-25 10 0 135 74 135 80 0 3-109 68-243 144-244 141-1026 593-1082 626l-30 17z"/>
  <path d="m1915 1570c14-23 284-190 308-190 5 0 6 7 3 16s-6 20-6 25-7 9-15 9-15 5-15 10c0 6-16 10-35 10-28 0-35 4-35 20s-7 20-35 20-35 4-35 20-7 20-35 20c-31 0-35 3-35 25s-4 25-36 25c-20 0-33-4-29-10z"/>
  <path d="m693 1202c-73-43-133-79-132-82 0-3 87-55 194-116 193-111 195-112 195-84s-15 40-51 40c-10 0-19 6-19 14 0 15-21 26-51 26-10 0-19 7-19 15 0 10-11 15-35 15-28 0-35 4-35 20 0 15-7 20-25 20-15 0-25 6-25 15 0 8-12 17-27 21-42 9-50 12-30 13 10 1 17 9 17 21 0 16 7 20 35 20s35 4 35 20 7 20 35 20c29 0 35 4 35 21s4 20 23 15c12-3 30-6 40-6 9 0 17-6 17-14 0-17 22-26 61-26 22 0 29-5 29-20 0-16 7-20 35-20s35-4 35-20 7-20 35-20 35-4 35-20c0-15 7-20 25-20 16 0 25-6 25-15 0-10 11-15 35-15 28 0 35-4 35-20s7-20 35-20 35-4 35-20c0-15 7-20 25-20 16 0 25-6 25-15 0-10 11-15 35-15 28 0 35-4 35-20s7-20 35-20 35-4 35-20c0-15 7-20 25-20 15 0 25-6 25-14 0-15 21-26 51-26 10 0 19-7 19-15 0-10 11-15 35-15 28 0 35-4 35-20 0-15 7-20 25-20 15 0 25-6 25-14 0-15 21-26 51-26 10 0 19-7 19-15 0-10 11-15 35-15 28 0 35-4 35-20 0-15 7-20 25-20 16 0 25-6 25-15 0-10 11-15 35-15 28 0 35-4 35-20s7-20 35-20 35-4 35-20 7-20 35-20 35-4 35-20c0-15 7-20 29-20 17 0 32 4 35 8 2 4-82 58-187 119-973 562-1153 666-1162 668-5 2-70-31-142-73z"/>
  <path id="p14VdocNuV" d="m170 899c-58-33-107-64-110-68s-14-11-25-15c-18-6-17-8 10-26 39-26 45-25 45 5 0 18 5 25 20 25 13 0 20 7 20 20 0 16 7 20 35 20s35 4 35 20 7 20 35 20c19 0 35 5 35 10 0 6 11 10 25 10 16 0 25-6 25-15 0-10 11-15 35-15 28 0 35-4 35-20 0-15 7-20 25-20 15 0 25-6 25-14 0-15 21-26 51-26 10 0 19-6 19-14 0-15 21-26 51-26 10 0 19-7 19-15 0-9 9-15 25-15 15 0 25-6 25-14 0-15 21-26 51-26 10 0 19-6 19-14 0-15 21-26 51-26 10 0 19-6 19-14 0-15 21-26 51-26 10 0 19-7 19-15 0-9 9-15 25-15 15 0 25-6 25-14s7-17 16-20c23-9 74-7 74 2s-667 396-690 399c-8 2-62-24-120-58z"/>
  <path id="p18p9BvJcT" d="m990 872c0-6 517-307 675-393 33-18 69-38 80-46 28-19 35-16 35 12 0 22-4 25-35 25-28 0-35 4-35 20 0 13-7 20-20 20-11 0-20 5-20 10 0 6-16 10-35 10-28 0-35 4-35 20s-7 20-35 20-35 4-35 20-7 20-35 20-35 4-35 20-7 20-35 20-35 4-35 20c0 15-7 20-25 20-16 0-25 6-25 15 0 10-11 15-35 15-28 0-35 4-35 20s-7 20-35 20-35 4-35 20-7 20-35 20-35 4-35 20-7 20-35 20-35 4-35 20-7 20-35 20c-19 0-35-3-35-8z"/>
  <path id="p18QUTvlau" d="m2270 772c0-7 123-82 135-82 3 0 5 11 5 25 0 22-4 25-35 25-28 0-35 4-35 20s-7 20-35 20c-19 0-35-4-35-8z"/>
  <path d="m140 742c0-7 193-122 205-122 3 0 5 11 5 25 0 22-4 25-35 25-28 0-35 4-35 20s-7 20-35 20-35 4-35 20-7 20-35 20c-19 0-35-4-35-8z"/>
  <path id="phsjhgO6W" d="m2470 685c0-30 3-30 41-8 38 23 37 33-6 33-31 0-35-3-35-25z"/>
  <path id="pkB81T2SB" d="m400 592c0-7 193-122 205-122 3 0 5 11 5 25 0 22-4 25-35 25-28 0-35 4-35 20s-7 20-35 20-35 4-35 20-7 20-35 20c-19 0-35-4-35-8z"/>
  <path id="p2n0xd47Z" d="m1e3 525c0-20 5-25 25-25 16 0 25-6 25-15 0-10 11-15 35-15 28 0 35-4 35-20s7-20 35-20 35-4 35-20c0-15 7-20 25-20 16 0 25-6 25-15 0-10 11-15 35-15 28 0 35-4 35-20s7-20 35-20 35-4 35-20 7-20 35-20 35-4 35-20c0-15 7-20 25-20 16 0 25-6 25-15 0-10 11-15 35-15h35l-6-40c-8-46-3-48 49-16l38 24-33 20c-80 48-609 352-613 352-3 0-5-11-5-25z"/>
  <path id="psHClik1t" d="m2053 463c-7-2-13-11-13-19s-10-14-25-14c-20 0-25-5-25-25 0-14 2-25 5-25 12 0 135 75 135 82 0 9-57 10-77 1z"/>
  <path d="m660 442c0-7 193-122 205-122 3 0 5 11 5 25 0 22-4 25-35 25-28 0-35 4-35 20s-7 20-35 20-35 4-35 20-7 20-35 20c-19 0-35-4-35-8z"/>
  <path id="pTWY1eT8q" d="m920 292c0-7 123-82 135-82 3 0 5 11 5 25 0 22-4 25-35 25-28 0-35 4-35 20s-7 20-35 20c-19 0-35-4-35-8z"/>
  <path id="pebcZXwtE" d="m1440 85c0-30 3-30 41-8 38 23 37 33-6 33-31 0-35-3-35-25z"/>
 </g>
 <g id="l3qDAomUxCAKvgiu71ygEQf" transform="translate(-10 -15.629)" fill="#86a7d8">
  <path id="p4ehFWo4q" d="m1770 2925c0-22 4-25 35-25 28 0 35-4 35-20s7-20 35-20 35-4 35-20 7-20 35-20c19 0 35 4 35 8 0 7-193 122-205 122-3 0-5-11-5-25z"/>
  <path id="pjKz6xOfh" d="m1600 2425c0-22 4-25 35-25 28 0 35-4 35-20s7-20 35-20c19 0 35 4 35 8 0 7-123 82-135 82-3 0-5-11-5-25z"/>
  <path id="p21ahDGJQ" d="m1600 2212c0-8 121-82 133-82 4 0 7 11 7 24 0 24-16 36-51 36-10 0-19 7-19 15 0 10-11 15-35 15-19 0-35-4-35-8z"/>
  <path id="pioCesA2U" d="m2100 2135c0-22 4-25 35-25 33 0 35-2 35-35 0-28 4-35 20-35 11 0 20 6 20 13 0 29-13 57-26 57-8 0-14 4-14 8 0 8-52 42-64 42-3 0-6-11-6-25z"/>
  <path id="pHrRZj3zu" d="m2180 1970c0-33 3-40 20-40 21 0 25 16 14 58-11 39-34 27-34-18z"/>
  <path id="p11wDhoMDk" d="m2030 1962c0-9 175-112 191-112 6 0 8 7 5 16s-6 20-6 25-11 9-25 9c-16 0-25 6-25 15s-9 15-25 15c-15 0-25 6-25 14s-7 17-16 20c-22 9-74 7-74-2z"/>
  <path d="m1745 1873c9-61 37-135 53-141 17-5 16 45-3 98-8 23-15 53-15 66 0 18-6 24-21 24-20 0-21-4-14-47z"/>
  <path id="p12AT8vNSA" d="m1990 1781c0-42 10-61 31-61 12 0 19-7 19-20 0-16 7-20 37-20h38l-42 38c-23 21-45 51-48 65-10 37-35 35-35-2z"/>
  <path id="pEs20KqaA" d="m1800 1711c0-9 68-101 75-101 3 0 5 16 5 35 0 24-5 35-15 35-8 0-15 9-15 20 0 15-7 20-25 20-14 0-25-4-25-9z"/>
  <path id="pMuBN68Rg" d="m2120 1655c0-22 4-25 35-25 43 0 44 10 6 33-38 22-41 22-41-8z"/>
  <path id="p3OrO2qeH" d="m1232 1514c-73-42-131-78-130-80 5-4 1352-775 1359-777 4-1 66 32 137 73 99 57 128 78 119 86-7 6-205 123-442 259-236 137-531 307-655 378-123 72-231 132-240 133-8 2-75-30-148-72zm188 7c3-4 16-15 30-24 17-12 43-59 81-150 53-125 59-159 23-123-8 9-26 19-40 22-13 3-24 10-24 14 0 5-16 14-35 21s-35 16-35 20-16 13-35 20-35 16-35 19c0 10-48 30-70 30-11 0-20 6-20 14 0 15-21 26-51 26-10 0-19 6-19 14s-6 17-12 19c-7 3-3 6 9 6 33 1 53 12 53 27 0 8 9 14 19 14 30 0 51 11 51 25 0 23 95 27 110 6z"/>
  <path id="plVSF8fZp" d="m1900 1585c0-15 281-195 304-195 4 0 6 11 6 25 0 22-4 25-35 25-28 0-35 4-35 20s-7 20-35 20-35 4-35 20-7 20-30 20-30 4-30 20c0 13-7 20-20 20-11 0-20 7-20 15 0 10-11 15-35 15-19 0-35-2-35-5z"/>
  <path id="p10E5hx5dH" d="m693 1199c-68-39-123-74-123-78s78-51 173-106c94-54 186-109 202-120 17-12 179-106 360-210 182-103 392-223 467-266 75-44 142-79 148-79 11 0 273 151 268 155-5 3-1230 710-1289 743-31 18-63 32-70 32-8 0-69-32-136-71zm297-53c0-15 21-26 51-26 10 0 19-6 19-14 0-15 21-26 51-26 10 0 19-7 19-15 0-9 9-15 25-15 15 0 25-6 25-14 0-15 21-26 51-26 10 0 19-6 19-14s10-18 22-22c12-3 28-13 36-20 7-8 24-14 38-14s24-6 24-14c0-15 21-26 51-26 10 0 19-6 19-14s10-18 22-22c12-3 28-13 36-20 7-8 20-14 28-14s14-4 14-9 16-15 35-22 35-16 35-20 15-13 33-20c17-7 38-19 45-26s20-13 28-13 14-3 14-8c0-4 20-18 45-32 42-23 48-31 91-135 71-169 68-155 34-155-19 0-30 5-30 14 0 15-21 26-51 26-10 0-19 7-19 15 0 9-9 15-25 15-15 0-25 6-25 14 0 17-22 26-61 26-21 0-29 5-29 18 0 20-38 42-70 42-11 0-20 7-20 15s-11 17-25 21c-14 3-25 9-25 13 0 11-47 31-70 31-11 0-20 6-20 14s-10 18-22 22c-12 3-28 13-36 20-7 8-24 14-38 14s-24 6-24 14c0 15-21 26-51 26-10 0-19 6-19 14 0 15-21 26-51 26-10 0-19 6-19 14 0 15-21 26-51 26-10 0-19 6-19 14 0 15-21 26-51 26-10 0-19 7-19 15s-11 17-25 21c-15 4-27 15-30 28-9 45-16 187-10 206 7 23 25 27 25 6z"/>
  <path id="pfyFbyw5d" d="m156 890c-65-37-122-72-127-77-4-4 206-132 469-283 262-151 501-290 532-309 86-53 341-201 346-201 10 0 264 152 264 159 0 3-152 93-338 200-185 107-488 281-673 387-185 107-340 194-345 193-5 0-62-31-128-69zm944-430c0-15 7-20 25-20 15 0 25-6 25-14 0-15 21-26 51-26 10 0 19-7 19-15 0-10 11-15 35-15 28 0 35-4 35-20 0-15 7-20 25-20 15 0 25-6 25-14 0-15 21-26 51-26 10 0 19-6 19-14 0-15 21-26 51-26 10 0 19-7 19-15 0-9 9-15 25-15 15 0 25-6 25-15 0-8 15-19 33-24 31-9 31-9 5-10-18-1-28-7-28-16 0-8-9-15-19-15-30 0-51-11-51-26 0-8-10-14-25-14-16 0-25-6-25-15 0-8-9-15-19-15-11 0-26-3-35-6-10-4-16-1-16 9 0 16-20 27-51 27-10 0-19 6-19 14 0 15-21 26-51 26-10 0-19 6-19 14 0 15-21 26-51 26-10 0-19 7-19 15s-5 15-11 15c-23 0-42 34-64 113-12 45-25 99-29 120l-7 37h36c28 0 35-4 35-20z"/>
 </g>
 <g id="l3mv6xguk8m1LQEkwd3jtyl" transform="translate(-10 -15.629)" fill="#9cbbe4">
  <path id="pqELLFQtm" d="m1820 2895c0-22 4-25 35-25 28 0 35-4 35-20s7-20 35-20 35-4 35-20 7-20 31-20c20 0 29 4 27 12-4 12-174 116-190 118-5 0-8-11-8-25z"/>
  <path id="pPuiWr1FE" d="m1600 2431c0-16 6-21 25-21 18 0 25-5 25-20 0-16 7-20 35-20 19 0 35 4 35 8 0 5-24 22-52 38-71 39-68 38-68 15z"/>
  <path id="pfMOZYsHn" d="m1620 2202c0-5 27-23 60-42s60-40 60-47 5-13 10-13c6 0 10 16 10 35 0 33-2 35-35 35-28 0-35 4-35 20s-7 20-35 20c-19 0-35-4-35-8z"/>
  <path id="pPHilhEUi" d="m2030 2175c0-20 5-25 25-25 16 0 25-6 25-15 0-10 11-15 35-15 28 0 35-4 35-20 0-11 5-20 10-20 6 0 10-13 10-30 0-23 4-30 20-30 21 0 24 10 14 58-5 25-20 38-85 76-43 25-81 46-84 46s-5-11-5-25z"/>
  <path id="pYc182WPt" d="m1980 1890c0-93 1-100 20-100 18 0 20 7 20 85 0 82 1 85 19 75 28-14 31-13 31 15 0 23-4 25-45 25h-45z"/>
  <path d="m2180 1955c0-32-2-35-30-35-38 0-38-11-1-33 38-22 41-22 41 8 0 16 6 25 15 25 16 0 18 12 9 48-10 36-34 27-34-13z"/>
  <path id="p14oIWkxOr" d="m1740 1918c0-30 13-58 26-58 9 0 14 12 14 35 0 28-4 35-20 35-11 0-20-6-20-12z"/>
  <path d="m1785 1743c9-20 28-53 43-72l27-36 3 34c2 19 0 37-5 40s-15 21-22 39c-10 23-20 32-37 32-24 0-24 0-9-37z"/>
  <path id="pGDRf3O2C" d="m2100 1665c0-22 4-25 35-25 28 0 35-4 35-20 0-15 7-20 25-20 42 0 29 26-30 59-30 17-57 31-60 31s-5-11-5-25z"/>
  <path id="p1Ay7tzHaq" d="m1895 1590c3-5 19-19 35-30l30-21v30c0 29-3 31-36 31-20 0-33-4-29-10z"/>
  <path id="pnQ7fw52q" d="m1241 1516c-68-40-123-76-123-81 0-8 542-319 547-313 1 2-34 90-79 196l-81 193-62 40c-34 21-66 39-70 38-4 0-64-33-132-73z"/>
  <path d="m1980 1525c11-14 163-105 175-105 3 0 5 11 5 25 0 22-4 25-35 25-28 0-35 4-35 20 0 15-7 20-25 20-16 0-25 6-25 15 0 11-11 15-36 15-31 0-35-2-24-15z"/>
  <path id="pk0WgYj3v" d="m935 1170c-10-56 5-267 19-278 10-9 391-227 793-456l171-97 31 16c17 8 31 17 31 18 0 4-129 309-132 312-5 5-769 449-840 488l-66 38zm85-44c0-15 21-26 51-26 10 0 19-6 19-14 0-15 21-26 51-26 10 0 19-7 19-15 0-9 9-15 25-15 14 0 25-6 25-13 0-8 16-22 35-33 22-12 38-29 41-44 9-41 26-80 35-80 4 0 11-17 15-37 7-39 21-74 34-83 4-3 10-15 14-27 7-20 4-23-23-23-24 0-31 4-31 20s-7 20-35 20-35 4-35 20c0 15-7 20-25 20-15 0-25 6-25 14 0 17-22 26-61 26-22 0-29 5-29 20 0 16-7 20-35 20s-35 4-35 20c0 15-7 20-25 20-16 0-25 6-25 15 0 8-4 15-10 15s-10 43-10 110c0 103 1 110 20 110 11 0 20-6 20-14z"/>
  <path d="m984 519c19-118 70-302 90-321 21-19 21-19 24 5 2 13-11 76-27 138-33 122-37 149-21 149 6 0 10-6 10-14 0-15 21-26 51-26 10 0 19-7 19-15 0-10 11-15 35-15 28 0 35-4 35-20 0-15 7-20 25-20 15 0 25-6 25-14 0-15 21-26 51-26 10 0 19-7 19-15 0-9 9-15 25-15 15 0 25-6 25-14 0-15 21-26 51-26 10 0 19-6 19-14 0-15 21-26 51-26 10 0 19-7 19-15 0-9 9-15 24-15s26-7 29-20c4-16 0-20-19-20s-24-5-24-25c0-14 3-25 8-25 4 0 31 16 61 34l54 34-24 15c-30 19-586 340-618 357-24 12-24 12-17-31z"/>
  <path d="m1400 75c0-9-9-15-25-15-27 0-35-24-10-34 15-5 105 42 105 56 0 5-16 8-35 8-24 0-35-5-35-15z"/>
 </g>
 <g id="l6ifCsomTEdwKMhs1BA3L2C" transform="translate(-10 -15.629)" fill="#adccee">
  <path id="paQnKCE5v" d="m1740 2957c0-31 13-47 36-47 15 0 24-6 24-15 0-10 11-15 35-15 28 0 35-4 35-20s7-20 35-20 35-4 35-20c0-13 7-20 20-20 20 0 20-7 20-310 0-296 1-310 19-320 11-5 29-10 40-10 12 0 21-7 21-15 0-10 11-15 35-15 28 0 35-4 35-20s7-20 35-20c19 0 35 3 35 8 0 4-40 31-90 60l-90 52-2 301-3 301-91 53c-49 28-111 64-137 79-37 22-47 25-47 13z"/>
  <path id="pAYGSePsC" d="m1600 2431c0-12 6-21 15-21 8 0 15-7 15-15 0-9 9-15 25-15 15 0 25-6 25-14 0-17 22-26 61-26 26 0 29 3 29 34 0 21-6 36-15 40-10 4-15-1-15-14 0-11-3-20-6-20s-35 16-70 36c-60 34-64 34-64 15z"/>
  <path id="psraPmaLM" d="m1600 2223c0-11 22-30 59-50 33-18 62-33 65-33s6 11 6 24c0 24-16 36-51 36-10 0-19 6-19 14 0 14-21 26-46 26-8 0-14-8-14-17z"/>
  <path id="pZX4Yrqx" d="m2170 2035c0-38 3-45 20-45 21 0 26 23 14 68-11 41-34 26-34-23z"/>
  <path id="pKWAcqRLE" d="m2020 1972c0-4 44-34 98-65l97-56 3 31c5 48-7 98-23 98-10 0-15-11-15-35 0-19-4-35-10-35-5 0-10 6-10 14s-10 18-22 22c-12 3-28 13-36 20-14 15-82 20-82 6z"/>
  <path id="pEkkkPC1p" d="m1745 1898c12-84 17-98 31-98 16 0 17 22 8 94-5 37-11 46-26 46-18 0-19-5-13-42z"/>
  <path id="p3eglGKAA" d="m1980 1821c0-16 3-43 6-60 6-26 11-31 35-31 26 0 29-4 29-30 0-20 5-30 15-30 8 0 15-4 15-10 0-5 16-10 35-10 28 0 35-4 35-20s7-20 35-20c19 0 35 3 35 8 0 4-34 27-76 52-91 53-119 84-128 139-7 49-36 58-36 12z"/>
  <path d="m1849 1641c34-48 115-109 244-187 109-65 122-70 125-53 4 25-33 59-65 59-13 0-23 6-23 14 0 15-21 26-51 26-10 0-19 7-19 15s-7 15-15 15-15 5-15 10c0 6-6 10-14 10s-16 7-20 15c-3 8-15 15-26 15s-20 6-20 13c0 24-64 77-94 77h-27z"/>
  <path id="pppz3tGIh" d="m950 1047v-154l248-141c259-148 295-166 276-141-6 8-14 27-18 42s-11 25-16 22c-6-4-7 1-3 11 4 11 2 15-4 11s-10-1-10 6c2 25-24 97-33 92-6-4-7 1-3 11 4 11 2 15-4 11s-10-1-10 6c2 25-24 97-33 92-6-4-7 1-3 11 5 13 3 15-7 9-8-5-11-4-6 3 10 16-12 56-42 73-146 87-322 189-327 189-3 0-5-69-5-153z"/>
  <path id="p186gJeJSn" d="m994 513c17-99 71-297 85-314 13-14 173-111 282-169 11-6 53 13 148 69 73 43 129 81 125 83-326 190-635 368-640 368-3 0-3-17 0-37z"/>
 </g>
 <g transform="translate(-10 -15.629)" fill="#fff">
  <path id="pKgy2UdqW" d="m1738 2666-3-295-55 34c-30 19-61 35-67 35-10 0-13-29-13-115v-114l140-82v-99c0-290 86-422 387-593 45-26 85-47 88-47s5 53 5 118v117l-70 39c-38 22-84 54-102 73-31 32-32 37-36 128-3 73-1 95 8 95 7 0 56-25 108-55l95-56-6 48c-3 26-9 84-13 129l-6 80-188 106v603l-123 70c-67 39-128 71-134 73-10 3-13-64-15-292z"/>
 </g>
</svg>
