<?xml version="1.0" encoding="iso-8859-1"?>
<!-- Generator: Adobe Illustrator 19.0.0, SVG Export Plug-In . SVG Version: 6.00 Build 0)  -->
<svg version="1.1" id="Capa_1" xmlns="http://www.w3.org/2000/svg" xmlns:xlink="http://www.w3.org/1999/xlink" x="0px" y="0px"
	 viewBox="0 0 490 490" style="enable-background:new 0 0 490 490;" xml:space="preserve">

  <path d="M245,172.7c45.1,0,81.7-36.6,81.7-81.7S290.1,9.3,245,9.3S163.3,45.9,163.3,91S199.9,172.7,245,172.7z M245,46.7
    c24.5,0,44.7,19.8,44.7,44.7s-20.2,44.3-44.7,44.3s-44.7-19.8-44.7-44.7S220.5,46.7,245,46.7z"/>
  <path d="M337.6,132.6c-3.5,7.8-8.2,15.2-13.2,21.8l57.6,89.8l-56.8,1.2l-24.9,50.9L245,210l-55.2,86.7l-24.9-50.9l-56.8-1.2
    l57.6-89.8c-5.4-6.6-9.7-14-13.2-21.8H0v347.7h490V132.6H337.6z M133,443.3H50.6c-5.4,0-10.1-4.3-10.1-10.1
    c0-5.8,4.3-10.1,10.1-10.1H133c5.4,0,10.1,4.3,10.1,10.1C143.1,439.1,138.4,443.3,133,443.3z M439.4,443.3H357
    c-5.4,0-10.1-4.3-10.1-10.1c0-5.8,4.3-10.1,10.1-10.1h82.4c5.4,0,10.1,4.3,10.1,10.1C449.6,439.1,444.9,443.3,439.4,443.3z
      M439.4,365.9H50.6c-5.4,0-10.1-4.3-10.1-10.1c0-5.4,4.3-10.1,10.1-10.1h388.9c5.4,0,10.1,4.3,10.1,10.1
    C449.6,361.7,444.9,365.9,439.4,365.9z"/>
  <path d="M144.3,225.2l33.4,0.4l14.4,29.9l40.8-63.8c-19.8-2.3-38.1-10.5-52.9-22.9L144.3,225.2z"/>
  <path d="M297.9,255.9l14.4-29.9l33.4-0.4l-35.8-56c-14.8,12.4-33.1,20.6-52.9,22.9L297.9,255.9z"/>

</svg>
