<?xml version="1.0" encoding="UTF-8" standalone="no"?>
<svg
   viewBox="0 0 20 20"
   version="1.2"
   xmlns="http://www.w3.org/2000/svg"
   xmlns:svg="http://www.w3.org/2000/svg">
  <path
     d="M 14.5,2 C 16.43,2 18,3.57 18,5.5 18,7.43 16.43,9 14.5,9 H 13 v 2 h 1.5 C 16.43,11 18,12.57 18,14.5 18,16.43 16.43,18 14.5,18 12.57,18 11,16.43 11,14.5 V 13 H 9 v 1.5 C 9,16.43 7.43,18 5.5,18 3.57,18 2,16.43 2,14.5 2,12.57 3.57,11 5.5,11 H 7 V 9 H 5.5 C 3.57,9 2,7.43 2,5.5 2,3.57 3.57,2 5.5,2 7.43,2 9,3.57 9,5.5 V 7 h 2 V 5.5 C 11,3.57 12.57,2 14.5,2 M 13,7 h 1.5 C 15.327,7 16,6.326 16,5.5 16,4.672 15.327,4 14.5,4 13.673,4 13,4.672 13,5.5 V 7 M 5.5,7 H 7 V 5.5 C 7,4.672 6.327,4 5.5,4 4.673,4 4,4.672 4,5.5 4,6.326 4.673,7 5.5,7 m 9,9 C 15.327,16 16,15.326 16,14.5 16,13.672 15.327,13 14.5,13 H 13 v 1.5 c 0,0.826 0.673,1.5 1.5,1.5 m -9,0 C 6.327,16 7,15.326 7,14.5 V 13 H 5.5 C 4.673,13 4,13.672 4,14.5 4,15.326 4.673,16 5.5,16 m 9,-16 C 12.643,0 10.996,0.926 10,2.341 9.004,0.926 7.357,0 5.5,0 2.467,0 0,2.468 0,5.5 0,7.357 0.926,9.004 2.341,10 0.926,10.996 0,12.643 0,14.5 0,17.532 2.467,20 5.5,20 7.357,20 9.004,19.074 10,17.659 10.996,19.074 12.643,20 14.5,20 17.533,20 20,17.532 20,14.5 20,12.643 19.074,10.996 17.659,10 19.074,9.004 20,7.357 20,5.5 20,2.468 17.533,0 14.5,0 Z M 11,9 H 9 v 2 h 2 z"
     id="path824" />
</svg>
