<?xml version="1.0" encoding="UTF-8" standalone="no"?>
<svg viewBox="0 0 31 29.1" version="1.1" xmlns="http://www.w3.org/2000/svg" xmlns:svg="http://www.w3.org/2000/svg">
  <polygon points="11,16.5 10,19.6 12,19.6" transform="translate(-2.3,-3)" />
  <path d="M 28,0 H 12 v 5 h 4 V 7 H 3 C 1.3,7 0,8.3 0,10 v 11 c 0,1.7 1.3,3 3,3 h 1 v 5.1 L 10.3,24 H 17 v -7 h 11 c 1.7,0 3,-1.3 3,-3 V 3 C 31,1.3 29.7,0 28,0 Z M 10.8,19.9 10.3,18.3 H 7.2 L 6.6,19.9 H 4.2 L 7.5,11 h 2.4 l 3.3,8.9 z M 26,12 v 2 c -1.3,0 -2.7,-0.4 -3.9,-1 -1.2,0.6 -2.6,0.9 -4,1 L 18,12 c 0.7,0 1.4,-0.1 2.1,-0.3 -0.9,-0.9 -1.5,-2 -1.8,-3.2 h 2.1 c 0.3,0.9 0.9,1.6 1.6,2.2 1.1,-0.9 1.8,-2.2 1.9,-3.7 h -6 V 5 h 3 V 3 h 2 v 2 h 3.3 l 0.1,1 c 0.1,2.1 -0.7,4.2 -2.2,5.7 0.7,0.2 1.3,0.3 1.9,0.3 z"/>
</svg>
