<?xml version="1.0" encoding="UTF-8"?>
<svg width="512" height="512" enable-background="new 0 0 512 512" version="1.1" viewBox="0 0 512 512" xml:space="preserve" xmlns="http://www.w3.org/2000/svg"><g transform="matrix(1.4211 0 0 1.4856 -105.64 -124.3)"><path d="m290.43 233.07 94.35-117.6c4.32-5.385 3.457-13.252-1.927-17.573-5.385-4.319-13.252-3.458-17.573 1.928l-90.876 113.26-90.876-113.26c-2.3726-2.957-5.9588-4.6776-9.75-4.678h-73.601c-10.489 1.64e-4 -16.314 12.14-9.75 20.322l131.15 163.46-94.35 117.6c-4.32 5.385-3.457 13.252 1.927 17.573 2.2146 1.782 4.9724 2.7524 7.815 2.75 3.7947 5e-3 7.3857-1.7162 9.758-4.678l90.877-113.26 90.875 113.26c2.3726 2.957 5.9588 4.6776 9.75 4.678h73.621c6.903 0 12.5-5.596 12.5-12.5 0-3.187-1.192-6.094-3.155-8.302zm53.797 158.78-217.99-271.7h41.548l217.99 271.7z"/></g></svg>
