              <svg id="sw-js-blob-svg" viewBox="0 0 100 100" xmlns="http://www.w3.org/2000/svg">                    <defs>                         <linearGradient id="sw-gradient" x1="0" x2="1" y1="1" y2="0">                            <stop id="stop1" stop-color="rgba(248, 117, 55, 1)" offset="0%"></stop>                            <stop id="stop2" stop-color="rgba(251, 168, 31, 1)" offset="100%"></stop>                        </linearGradient>                    </defs>                <path fill="url(#sw-gradient)" d="M18.7,-18.4C26,-16.1,35.1,-11.9,38,-5.2C40.9,1.5,37.7,10.7,31.1,14C24.5,17.2,14.3,14.4,8,12.8C1.6,11.1,-1,10.6,-6.5,11.4C-12,12.2,-20.4,14.4,-27.5,11.4C-34.7,8.3,-40.6,0.1,-39.8,-7.4C-39,-15,-31.4,-21.7,-23.7,-24C-15.9,-26.2,-8,-24,-1.2,-22.6C5.7,-21.2,11.3,-20.7,18.7,-18.4Z" width="100%" height="100%" transform="translate(50 50)" stroke-width="0" style="transition: all 0.3s ease 0s;"></path>              </svg>