<svg enable-background="new 0 0 455.731 455.731" version="1.1" viewBox="0 0 455.73 455.73" xml:space="preserve" xmlns="http://www.w3.org/2000/svg">
	<path d="m0 0v455.73h455.73v-455.73h-455.73zm107.26 69.215c20.873.017 38.088 17.257 38.043 38.234-.05 21.965-18.279 38.52-38.301 38.043-20.308.411-38.154-16.55-38.15-38.188 0-20.985 17.282-38.106 38.408-38.09zm195.74 100.05h11.471c39.997 0 72.42 32.424 72.42 72.42h-.00196v140.47c0 2.41-1.9552 4.3643-4.3652 4.3633l-57.152-.01367c-2.408-.001-4.3594-1.9543-4.3594-4.3633v-117.81c0-10.184-4.1277-19.407-10.803-26.078-6.764-6.768-16.15-10.916-26.502-10.799-20.279.22901-36.453 17.068-36.453 37.348v117.32c0 2.41-1.9533 4.3643-4.3633 4.3633l-57.012-.01367c-2.409-.001-4.3613-1.9543-4.3613-4.3633v-203.08c0-2.41 1.9543-4.3633 4.3633-4.3633h55.795c2.41 0 4.3633 1.9543 4.3633 4.3633v23.418c.005-.01.22661.01822.59961.07422 1.078-1.95 2.2515-3.8392 3.5195-5.6582 11.628-16.688 30.96-27.605 52.842-27.605zm-218.28 5.4102h44.721c5.804 0 10.508 4.7038 10.508 10.508v190.78c-.001 5.803-4.7038 10.508-10.508 10.508h-44.721c-5.804 0-10.51-4.7038-10.51-10.508v-190.78c0-5.804 4.7058-10.508 10.51-10.508z" fill="#fff"/>
</svg>
